<svg width="20" height="20" fill="fff" viewBox="0 0 20 20" xmlns="http://www.w3.org/2000/svg">
<path fill-rule="evenodd" clip-rule="evenodd" d="M1.11111 0H18.8889C19.5025 0 20 0.639593 20 1.42857C20 2.21755 19.5025 2.85714 18.8889 2.85714H1.11111C0.497461 2.85714 0 2.21755 0 1.42857C0 0.639593 0.497461 0 1.11111 0ZM1.11111 17.1429H18.8889C19.5025 17.1429 20 17.7825 20 18.5714C20 19.3604 19.5025 20 18.8889 20H1.11111C0.497461 20 0 19.3604 0 18.5714C0 17.7825 0.497461 17.1429 1.11111 17.1429ZM1.11111 8.57143H18.8889C19.5025 8.57143 20 9.21102 20 10C20 10.789 19.5025 11.4286 18.8889 11.4286H1.11111C0.497461 11.4286 0 10.789 0 10C0 9.21102 0.497461 8.57143 1.11111 8.57143Z"/>
</svg>
