<svg width="10" height="10" viewBox="0 0 10 10" xmlns="http://www.w3.org/2000/svg">
<path fill-rule="evenodd" clip-rule="evenodd" d="M5.00297 0.00118616C5.69493 0.00118616 6.38693 -0.00201696 7.07886 0.00210413C7.72986 0.00599085 8.34125 0.154448 8.871 0.5502C9.56279 1.06703 9.91681 1.77299 9.98269 2.62486C10.0059 2.92466 9.99868 3.22707 9.99907 3.5283C10.0006 4.69645 9.99977 5.86461 9.99965 7.03279C9.9996 7.5099 9.93325 7.97573 9.73136 8.41201C9.32181 9.297 8.60742 9.78081 7.66488 9.94847C7.46834 9.98342 7.2656 9.99648 7.06567 9.99707C5.68546 10.0011 4.30523 10.0002 2.92502 9.99877C2.2073 9.99804 1.55087 9.80851 0.991488 9.34286C0.423159 8.86982 0.123257 8.25113 0.0299658 7.52576C0.0138721 7.40065 0.00401857 7.27375 0.00390138 7.14769C0.00255373 5.69679 -0.00620602 4.24581 0.0080127 2.79505C0.0157861 2.00242 0.279712 1.29964 0.869769 0.745883C1.35921 0.286587 1.95414 0.0465963 2.61526 0.02311C3.41022 -0.0051322 4.20697 0.0164205 5.00295 0.0164205C5.00296 0.0113326 5.00296 0.00625452 5.00297 0.00118616ZM4.99516 9.07586C5.66098 9.07586 6.32678 9.07854 6.99256 9.07403C7.16668 9.07285 7.34333 9.06419 7.51418 9.0333C8.16679 8.91532 8.66295 8.58798 8.92297 7.95253C9.05508 7.62973 9.09822 7.28335 9.10385 6.94789C9.12569 5.64641 9.11338 4.34435 9.11185 3.0425C9.11167 2.90147 9.11015 2.75886 9.09019 2.6197C9.00071 1.99482 8.72981 1.48264 8.15473 1.17118C7.83374 0.997339 7.48529 0.931704 7.12309 0.931587C5.72826 0.931176 4.33343 0.930766 2.9386 0.932436C2.81255 0.932592 2.68538 0.939565 2.56065 0.957094C1.85025 1.05684 1.32698 1.40696 1.0651 2.09577C0.959417 2.37373 0.925648 2.66498 0.925589 2.9607C0.925384 4.32206 0.924076 5.68338 0.927376 7.04476C0.927777 7.21131 0.940199 7.38026 0.970013 7.54392C1.10227 8.27004 1.50716 8.76912 2.22824 8.96981C2.46854 9.03665 2.7254 9.06618 2.97553 9.07122C3.64851 9.08473 4.32192 9.07582 4.99516 9.07586Z"/>
<path fill-rule="evenodd" clip-rule="evenodd" d="M7.57715 4.98394C7.57653 6.40754 6.41499 7.56545 4.99101 7.56197C3.56649 7.55853 2.41929 6.40869 2.41846 4.98357C2.41763 3.56002 3.57743 2.40201 5.00247 2.40357C6.41522 2.40509 7.57779 3.57023 7.57715 4.98394ZM4.99879 6.63256C5.90706 6.63325 6.65512 5.88573 6.65355 4.979C6.65198 4.07855 5.90582 3.33098 5.00494 3.32732C4.09798 3.32363 3.35027 4.06887 3.34835 4.97843C3.34643 5.88929 4.0873 6.63184 4.99879 6.63256Z"/>
<path fill-rule="evenodd" clip-rule="evenodd" d="M7.67277 2.92313C7.35032 2.92025 7.09614 2.66222 7.09717 2.33883C7.09819 2.01177 7.35874 1.75534 7.68771 1.75758C8.0065 1.75979 8.26628 2.0229 8.26531 2.34258C8.26434 2.6668 7.99973 2.92605 7.67277 2.92313Z"/>
</svg>
