<svg width="100" height="50" viewBox="0 0 100 50" xmlns="http://www.w3.org/2000/svg">
<path d="M37.007 0.0970268C32.2105 0.375019 28.3003 1.03108 25.9333 1.93178C21.7624 3.53301 17.7062 7.45827 14.6093 12.8736C14.2027 13.5741 13.8169 14.1412 13.7334 14.1301C13.6605 14.1301 13.2225 14.0078 12.7637 13.8855C12.3049 13.752 11.4916 13.5852 10.9494 13.5074L9.95879 13.3851L8.83265 10.9054L7.71694 8.42569H7.24771C6.56995 8.42569 1.63787 8.21441 0.751558 8.14769C0.0737885 8.10321 -0.00962926 8.11433 0.000797957 8.29225C0.000797957 8.39233 0.324042 9.35974 0.699422 10.4272L1.39805 12.3732L4.47407 12.4065L7.53968 12.4288L7.93591 12.8402C8.38428 13.3072 8.43642 13.5407 8.09232 13.5407C7.65438 13.5407 6.41354 13.9411 5.71491 14.308C4.80775 14.7862 3.911 15.5757 3.43135 16.3429C3.02469 16.999 2.47205 18.678 2.29479 19.8234C1.24164 26.6064 2.98298 38.1486 5.7879 42.9746C7.279 45.5544 10.1465 47.1667 13.9524 47.567C14.5572 47.6337 15.235 47.7116 15.4539 47.7338C15.6729 47.7672 15.8397 47.7449 15.8397 47.6782C15.8397 47.6226 15.7459 47.567 15.6312 47.567C15.235 47.567 13.3789 46.8665 12.2006 46.2771C10.2716 45.2986 8.36343 43.7974 7.46669 42.5409C4.30724 38.093 2.40949 22.7812 4.43237 17.9775C4.77646 17.1769 5.65235 16.254 6.49696 15.8314C7.4354 15.3533 8.17574 15.1976 9.47914 15.1865C10.7617 15.1865 11.6167 15.3088 12.7116 15.6646C13.3893 15.8759 14.015 15.9315 26.4755 16.9323C28.3941 17.0879 30.8341 17.2881 31.8977 17.377C32.9612 17.466 35.4221 17.6662 37.3719 17.8218C39.3218 17.9775 41.8035 18.1777 42.8775 18.2777C43.9619 18.3778 44.8691 18.4223 44.9004 18.4001C44.963 18.3222 44.6814 18.2777 40.8651 17.7662C30.4378 16.354 15.8085 14.3191 15.7668 14.2746C15.6938 14.1968 17.1849 11.795 18.0086 10.6496C18.8324 9.51541 20.8448 7.30259 21.7833 6.47974C24.5882 4.05564 27.2263 2.96591 31.9081 2.32097C35.6619 1.79834 36.079 1.78722 56.9751 1.82058C64.4097 1.8317 68.5389 2.27649 71.8235 3.42182C75.5981 4.73395 79.1225 7.89194 82.0213 12.54C82.845 13.8632 83.0327 14.2079 82.9597 14.2858C82.9285 14.308 82.5635 14.3858 82.136 14.4414C81.3644 14.5526 79.5292 14.8084 76.6304 15.1976C75.7441 15.3199 74.2739 15.5201 73.3771 15.6535C72.47 15.7758 70.9997 15.976 70.1134 16.0983C69.2271 16.2206 67.7569 16.4207 66.8601 16.5431C65.953 16.6765 64.295 16.8989 63.1793 17.0546C62.0636 17.2102 60.4161 17.4326 59.5298 17.555C58.6435 17.6773 57.1628 17.8774 56.2452 17.9886C54.2015 18.2555 53.7635 18.3333 53.8261 18.3889C53.8678 18.4334 59.5506 17.9886 66.881 17.377C69.9153 17.1213 72.7098 16.8989 75.1185 16.7099C76.328 16.6209 78.1737 16.4652 79.2372 16.3763C80.3008 16.2873 82.1256 16.1316 83.3038 16.0427C84.8366 15.9092 85.6708 15.7869 86.286 15.5979C87.725 15.1531 89.9356 15.053 91.1764 15.3866C92.2608 15.6646 93.5642 16.5875 94.0543 17.4104C94.4193 18.022 94.8155 19.3675 94.9823 20.535C95.389 23.504 95.1283 28.8081 94.3463 33.2782C93.5955 37.5482 92.2817 41.3956 91.0721 42.8634C90.092 44.0421 87.9648 45.6544 86.3277 46.4328C85.4831 46.8331 83.9086 47.4113 83.3873 47.5114C83.1683 47.5559 82.991 47.6337 82.991 47.6782C82.991 47.7338 83.1683 47.7449 83.3873 47.7227C83.5958 47.7005 84.2632 47.6226 84.8679 47.5559C88.653 47.1334 91.4371 45.5877 92.9594 43.0524C94.4818 40.5171 95.8582 35.3131 96.5151 29.6643C96.7862 27.3514 96.7862 21.7804 96.5151 20.0791C96.2753 18.5891 95.8165 17.1102 95.3577 16.3651C94.7216 15.3533 93.2201 14.2079 92.0627 13.8632C91.802 13.7854 91.5518 13.6853 91.4996 13.6408C91.4579 13.5963 91.6352 13.3072 91.9063 12.9959L92.4068 12.4288H95.462C97.5474 12.4288 98.538 12.3954 98.5901 12.3065C98.757 12.0062 100.06 8.19217 99.9978 8.15881C99.9665 8.13657 98.5067 8.19217 96.755 8.27001C95.0032 8.34785 93.2827 8.41457 92.9282 8.42569H92.2921L91.239 10.7275C90.655 12.0062 90.1441 13.1182 90.1024 13.2072C90.0294 13.3295 89.7166 13.3851 88.7677 13.4407C87.6207 13.5074 85.9211 13.8187 85.2433 14.0967C85.0869 14.1523 84.9409 14.2079 84.9305 14.2079C84.9096 14.2079 84.649 13.7631 84.357 13.2183C82.7408 10.2382 80.2695 7.09132 78.0381 5.16761C74.5763 2.19865 71.6358 1.07556 65.5776 0.419498C62.1262 0.0414287 58.9042 -0.0586498 54.3162 0.0303078C49.4675 0.141505 50.1349 0.141505 43.6804 0.0525475C40.9589 0.0191884 37.9559 0.0414283 37.007 0.0970268Z"/>
<path d="M8.97765 20.1904C8.89423 20.3572 8.65441 21.0132 8.44586 21.6582C8.10176 22.6812 8.04963 22.9814 8.00792 24.1045C7.96621 25.2165 7.98706 25.4611 8.17475 26.006C8.57099 27.1179 9.55115 27.8852 11.793 28.8081C14.1808 29.7978 18.5915 31.0877 23.1274 32.1218C24.6393 32.4665 24.973 32.4999 24.973 32.3553C24.973 32.1218 23.7009 30.1425 22.9918 29.2752C20.6978 26.4619 17.5071 24.3158 13.3884 22.8257C12.9713 22.6701 12.6167 22.57 12.5959 22.5811C12.5855 22.6033 13.3675 23.6597 14.3372 24.9162C15.3174 26.1839 16.1099 27.2736 16.1099 27.3292C16.1099 27.6406 14.3789 27.1847 13.2215 26.5619C12.2309 26.0393 10.8441 24.9496 10.3228 24.2935C9.4573 23.2149 9.07149 22.0251 9.14449 20.6907C9.17577 20.246 9.18619 19.879 9.16534 19.879C9.14449 19.879 9.06107 20.0124 8.97765 20.1904Z"/>
<path d="M91.6133 20.4573C91.801 21.7027 91.3005 23.2928 90.3829 24.338C89.6842 25.1498 88.3913 26.1505 87.3903 26.6509C86.3267 27.1958 84.6166 27.6295 84.6166 27.3515C84.6166 27.307 85.4195 26.2284 86.3997 24.9607C87.3798 23.682 88.1619 22.6256 88.141 22.6034C88.0159 22.4699 85.3048 23.6264 83.5218 24.5715C81.0818 25.8614 78.5688 28.052 77.0465 30.2203C76.3791 31.1655 75.7118 32.3665 75.8056 32.4665C75.8369 32.4888 76.1289 32.4554 76.4521 32.3887C81.8534 31.1766 85.7636 30.0758 88.6207 28.9527C89.9241 28.4412 91.2066 27.7629 91.7593 27.2847C93.1461 26.0727 93.1774 23.8043 91.8531 20.3461C91.6133 19.7122 91.509 19.7567 91.6133 20.4573Z"/>
<path d="M29.2794 28.2077C29.2273 28.2411 28.8206 28.9861 28.3827 29.8645L27.5693 31.4435L27.7883 32.5555C28.7997 37.6817 31.1459 41.7181 33.9716 43.2526C34.8997 43.7419 36.2656 44.1867 37.7567 44.4647C39.6545 44.8205 43.3874 44.8205 46.0255 44.4647C47.0161 44.3313 47.9337 44.1756 48.0588 44.1311C48.3195 44.0199 48.0067 43.9643 45.5667 43.7308C44.6491 43.6418 42.6367 43.4417 41.083 43.286C39.5398 43.1303 37.8923 42.9747 37.4335 42.9302L36.5993 42.8635L36.0467 42.2408C35.7443 41.896 35.3063 41.3845 35.0665 41.0843L34.6494 40.5617L40.4261 40.5506C46.8284 40.5283 46.7554 40.5617 41.9172 39.9501C40.6555 39.7944 38.6848 39.5387 37.5378 39.3941C36.3908 39.2496 35.1916 39.0939 34.8684 39.0605L34.274 38.9827L33.3773 37.4482C32.8872 36.6031 32.4806 35.8469 32.4806 35.7802C32.4806 35.669 32.6995 35.6579 33.3982 35.7135C33.8987 35.7469 35.859 35.858 37.7463 35.947C39.6441 36.0471 42.4386 36.1916 43.9714 36.2806C47.7877 36.503 47.7981 36.503 45.0454 36.0137C37.4752 34.6682 32.0322 33.6786 31.9905 33.6341C31.9071 33.534 31.0207 30.9654 31.0625 30.9209C31.0833 30.8987 32.0322 30.9765 33.1688 31.0988C34.3157 31.2211 36.2031 31.4324 37.3814 31.5547C43.377 32.1774 45.0766 32.3553 46.5365 32.511C47.4228 32.6 48.1631 32.6556 48.184 32.6333C48.2465 32.5777 48.0797 32.5333 45.0454 31.8327C43.8462 31.5436 41.6878 31.0432 40.2488 30.7096C38.8203 30.376 36.4742 29.8201 35.0352 29.4865C32.3554 28.8638 31.6881 28.697 30.2179 28.3523C29.7486 28.2299 29.3211 28.1743 29.2794 28.2077Z"/>
<path d="M69.4452 28.6191C68.3607 28.886 67.2555 29.1528 66.9948 29.2084C66.4838 29.3307 62.4172 30.287 56.7761 31.6103C54.7949 32.0662 53.064 32.4776 52.9285 32.511C52.7929 32.5443 52.7095 32.5888 52.7408 32.6222C52.7616 32.6555 54.211 32.5221 55.9523 32.3442C57.6937 32.1552 60.582 31.8549 62.3547 31.6659C64.1377 31.4769 66.5255 31.2322 67.6621 31.1099C68.7987 30.9876 69.758 30.9097 69.7893 30.9431C69.8623 31.0098 68.9655 33.5451 68.8404 33.6341C68.7883 33.6674 67.3806 33.9343 65.7122 34.2457C56.5676 35.8803 54.0337 36.3362 53.9295 36.3362C53.8773 36.3362 53.846 36.3584 53.8773 36.3918C53.9086 36.4251 55.2224 36.3806 56.7865 36.2917C58.361 36.1916 60.728 36.0693 62.0418 36.0026C63.3661 35.947 65.3264 35.8358 66.4004 35.7691C67.4849 35.7023 68.392 35.669 68.4233 35.7023C68.4859 35.7802 66.5985 39.0049 66.4943 39.0049C66.4526 39.0049 65.0345 39.1828 63.3452 39.3941C61.656 39.6165 59.2682 39.9167 58.0482 40.0613C54.3361 40.5283 54.3674 40.5394 60.4569 40.5505C63.5955 40.5505 66.1606 40.595 66.1606 40.6284C66.1606 40.6728 65.7435 41.1843 65.2326 41.7737L64.2941 42.8523L62.8552 42.9857C62.0627 43.0636 60.4569 43.2193 59.2786 43.3416C58.1004 43.4528 56.14 43.6529 54.9096 43.7752C53.6792 43.8976 52.6573 44.0199 52.6365 44.0532C52.5739 44.12 53.0119 44.2089 54.43 44.3979C60.6237 45.243 65.5454 44.5425 68.0896 42.452C70.2585 40.6728 71.9894 37.3592 72.9487 33.167C73.1155 32.4331 73.2511 31.7326 73.2511 31.588C73.2511 31.3212 71.6766 28.1854 71.5202 28.1521C71.468 28.1409 70.54 28.3522 69.4452 28.6191Z"/>
<path d="M10.792 31.8327C10.7086 31.8549 10.3228 31.9105 9.93696 31.9439C9.54072 31.9883 9.22791 32.0551 9.22791 32.0995C9.22791 32.144 9.61371 32.233 10.0934 32.3108C12.012 32.611 14.7856 33.4005 16.6625 34.19C19.8637 35.5244 21.6363 37.0367 22.9606 39.5164C23.3151 40.1836 24.0346 41.5735 24.5559 42.6188C25.0877 43.6529 25.7759 44.9317 26.0887 45.4543C27.1419 47.1778 28.6747 48.5233 30.5099 49.3128C32.8456 50.3136 36.7453 50.2246 42.3343 49.0237C44.0965 48.6456 48.7992 47.4002 48.6219 47.3669C48.5281 47.3446 47.6209 47.4336 46.5886 47.5559C41.5731 48.1675 36.8392 48.4455 34.3992 48.2565C33.492 48.1897 32.418 48.0563 32.0114 47.9562C30.3535 47.5782 28.6225 46.266 27.5068 44.5425C27.2149 44.0977 26.4954 42.7744 25.9115 41.618C24.0241 37.8929 23.6487 37.2702 22.679 36.2249C20.8334 34.2345 18.1745 32.789 15.1089 32.1107C14.16 31.8994 11.2195 31.7103 10.792 31.8327Z"/>
<path d="M87.2235 31.8438C83.5114 32.3108 80.279 33.8787 78.0267 36.2694C77.3072 37.0367 76.619 38.1709 75.4929 40.3948C73.5743 44.2311 72.7923 45.4654 71.687 46.4217C70.3106 47.6004 69.1219 48.0341 66.6298 48.2453C64.3775 48.4455 58.7468 48.1341 54.1692 47.567C53.2204 47.4447 52.3132 47.3446 52.1359 47.3558C51.3852 47.378 56.8178 48.6679 59.5393 49.1127C62.6466 49.6242 63.7727 49.7243 66.3169 49.7243C69.1844 49.7354 69.6745 49.6464 71.0926 48.8903C72.1562 48.3232 72.7193 47.8895 73.5222 46.9888C74.3668 46.0547 74.9924 45.0317 76.2749 42.5076C78.1518 38.8047 78.5585 38.1153 79.3405 37.2702C81.3113 35.1686 84.648 33.6007 89.4028 32.5666C90.2474 32.3775 91.0712 32.2218 91.2276 32.2218C91.6134 32.2218 91.5612 32.0328 91.165 31.955C90.7062 31.8771 87.6823 31.7882 87.2235 31.8438Z"/>
<path d="M10.427 34.4458C10.865 36.047 12.2205 39.0493 13.2632 40.7173C14.8794 43.3082 16.4852 44.3868 19.5404 44.9428C20.5936 45.1318 22.6373 45.1763 22.8771 45.0206C23.044 44.9094 22.9605 44.8761 22.0012 44.6759C21.24 44.5091 19.1755 43.753 18.456 43.3638C16.6729 42.4075 15.2861 40.8062 14.5771 38.8714C14.1391 37.6594 14.1391 37.6594 14.1391 38.649C14.1287 39.1828 14.087 39.5497 14.0348 39.5052C13.9827 39.4719 13.1694 38.3043 12.2414 36.9144C10.354 34.1011 10.3227 34.0455 10.427 34.4458Z"/>
<path d="M91.1754 34.5792C91.0399 34.7794 90.2265 35.9914 89.3715 37.2813L87.797 39.6053L87.7449 38.6713C87.6823 37.6705 87.6719 37.6705 87.3382 38.7158C86.9315 39.9723 85.9305 41.4623 84.8878 42.363C83.8138 43.2748 81.6658 44.2423 79.5595 44.7315C78.5063 44.9873 78.7149 45.0985 80.2373 45.1096C82.0307 45.1207 83.8972 44.6982 85.4404 43.9309C87.2235 43.0302 89.1421 40.3504 90.5915 36.7142C91.0294 35.6467 91.5091 34.2234 91.4465 34.2234C91.4257 34.2234 91.3005 34.3902 91.1754 34.5792Z"/>
</svg>
