<svg width="20" height="16" viewBox="0 0 20 16" fill="none" xmlns="http://www.w3.org/2000/svg">
<path d="M19.7273 0.284331C19.555 0.102082 19.3234 0 19.0821 0C18.8408 0 18.6091 0.102082 18.4368 0.284331L6.09385 13.6028L1.57702 8.72901C1.49132 8.63578 1.38937 8.56178 1.27704 8.51128C1.16471 8.46079 1.04422 8.43479 0.922534 8.43479C0.800845 8.43479 0.680361 8.46079 0.56803 8.51128C0.4557 8.56178 0.353747 8.63578 0.268054 8.72901C0.096367 8.91537 0 9.16747 0 9.43024C0 9.69302 0.096367 9.94512 0.268054 10.1315L5.43937 15.7115C5.52551 15.8037 5.62766 15.8767 5.73997 15.9262C5.85228 15.9756 5.97254 16.0007 6.09385 16C6.33568 15.9989 6.56742 15.8953 6.73912 15.7115L19.7273 1.69675C19.8137 1.60428 19.8823 1.49427 19.9291 1.37306C19.9759 1.25186 20 1.12185 20 0.990541C20 0.859234 19.9759 0.729226 19.9291 0.608017C19.8823 0.486809 19.8137 0.376798 19.7273 0.284331Z" fill="#28D22F"/>
</svg>
