<svg width="10" height="10" viewBox="0 0 10 10" xmlns="http://www.w3.org/2000/svg">
<path d="M9.94697 9.0311C9.93486 8.98536 9.92357 8.94742 9.91308 8.91702C9.73958 8.36934 9.40803 7.6971 8.91862 6.9001L8.90829 6.88185L8.90311 6.8729L8.89787 6.86373H8.89262C8.6705 6.49261 8.52985 6.24307 8.47094 6.11532C8.36317 5.87195 8.33902 5.62561 8.39793 5.37602C8.43954 5.18743 8.59586 4.78918 8.86652 4.1807C9.00889 3.85823 9.12165 3.59977 9.20492 3.40506C9.80545 2.00572 10.0658 1.11153 9.98594 0.722125L9.95492 0.631127C9.93407 0.576343 9.88028 0.526225 9.7936 0.480518C9.70672 0.434907 9.59568 0.427364 9.46028 0.45776L7.96082 0.475915C7.93653 0.460829 7.90185 0.462235 7.85666 0.480518C7.81152 0.4988 7.78895 0.507974 7.78895 0.507974L7.76285 0.530827L7.74213 0.558283C7.72477 0.576438 7.70568 0.60837 7.68483 0.654013C7.6641 0.699496 7.64676 0.752873 7.6329 0.813699C7.46965 1.54984 7.28404 2.23426 7.07573 2.86693C6.94729 3.24419 6.82934 3.57114 6.72162 3.84797C6.61404 4.1247 6.52379 4.32859 6.45095 4.45929C6.37801 4.59011 6.31218 4.69492 6.25305 4.77409C6.19402 4.85329 6.14896 4.88676 6.11776 4.87452C6.08648 4.86228 6.05703 4.85013 6.02915 4.83798C5.98059 4.7832 5.94152 4.70869 5.91207 4.6144C5.88249 4.52011 5.86258 4.40144 5.85217 4.25847C5.84181 4.1154 5.83568 3.99234 5.83393 3.88888C5.83231 3.78554 5.83306 3.63938 5.83658 3.4508C5.84019 3.26212 5.84181 3.13446 5.84181 3.06753C5.84181 2.83631 5.84438 2.58537 5.84954 2.31464C5.85479 2.04392 5.85904 1.82941 5.8626 1.67139C5.86614 1.51321 5.86778 1.34585 5.86778 1.16941C5.86778 0.992979 5.86165 0.854611 5.84954 0.754184C5.83758 0.653884 5.81921 0.556526 5.79502 0.462139C5.77067 0.367849 5.73504 0.294909 5.68828 0.24313C5.64143 0.191414 5.58318 0.150373 5.51387 0.119881C5.32988 0.0469095 5.0956 0.00743533 4.81092 0.00129845C4.16534 -0.0108474 3.75052 0.0622196 3.56655 0.220404C3.49366 0.287238 3.4277 0.378556 3.36872 0.49407C3.30623 0.627962 3.29751 0.70103 3.34263 0.713048C3.55092 0.767736 3.69838 0.89856 3.78517 1.10539L3.81644 1.21499C3.84077 1.29407 3.86506 1.43407 3.88937 1.63479C3.91364 1.83552 3.9293 2.05757 3.9362 2.3008C3.95352 2.74499 3.95352 3.12522 3.9362 3.44153C3.91882 3.75796 3.90241 4.0043 3.88674 4.18073C3.87108 4.35717 3.84766 4.50014 3.81644 4.60961C3.78516 4.71911 3.76436 4.78605 3.75393 4.81034C3.74351 4.83463 3.73483 4.84994 3.72794 4.85595C3.68282 4.88625 3.6359 4.90169 3.58734 4.90169C3.5387 4.90169 3.47973 4.85905 3.41032 4.77384C3.34093 4.68862 3.26892 4.57157 3.19427 4.4225C3.11963 4.27339 3.03546 4.06503 2.9417 3.79737C2.84802 3.52971 2.75082 3.21338 2.65016 2.84836L2.56688 2.58364C2.51481 2.41334 2.44369 2.16538 2.35344 1.83996C2.26313 1.51442 2.18331 1.19952 2.11392 0.895332C2.08619 0.767576 2.04452 0.670314 1.98899 0.603383L1.96293 0.575927C1.9456 0.551635 1.91779 0.525841 1.87964 0.498353C1.84144 0.470897 1.80157 0.451208 1.75989 0.439094L0.333285 0.457249C0.187505 0.457249 0.0885916 0.515133 0.0365089 0.630743L0.0156649 0.685432C0.00525203 0.715892 0 0.76454 0 0.831502C0 0.898432 0.0104129 0.980577 0.0312569 1.07784C0.239515 1.93572 0.46599 2.76308 0.710684 3.56005C0.955377 4.35701 1.16801 4.99898 1.34846 5.48539C1.52894 5.97216 1.71291 6.43156 1.90036 6.86338C2.08781 7.29535 2.21189 7.57219 2.2726 7.6938C2.33338 7.81565 2.38112 7.90674 2.41583 7.96757L2.54601 8.18654C2.62932 8.33258 2.75165 8.50748 2.91305 8.71125C3.0745 8.91514 3.25323 9.11586 3.44934 9.31375C3.64549 9.51131 3.87368 9.67253 4.13404 9.79722C4.39436 9.92203 4.64774 9.97212 4.8942 9.94795H5.49297C5.6144 9.92957 5.70641 9.86265 5.76894 9.74713L5.78965 9.70139C5.80359 9.66508 5.81663 9.60867 5.82866 9.53276C5.84084 9.45672 5.8469 9.37294 5.8469 9.28181C5.84334 9.02026 5.8547 8.78454 5.88067 8.57467C5.90662 8.36486 5.9362 8.20668 5.96928 8.10015C6.00234 7.99371 6.03965 7.9039 6.08118 7.83108C6.12279 7.75811 6.15245 7.71391 6.16984 7.69869C6.18713 7.68338 6.20094 7.673 6.21135 7.66676C6.29465 7.61812 6.39269 7.66523 6.50561 7.80833C6.61844 7.9513 6.72426 8.12783 6.82325 8.33763C6.92218 8.54763 7.04104 8.78323 7.17986 9.04478C7.31876 9.30643 7.44021 9.50092 7.54431 9.62887L7.6484 9.73837C7.71792 9.81144 7.80817 9.87837 7.91926 9.9392C8.03016 9.99999 8.12732 10.0152 8.21075 9.98481L9.54358 9.94837C9.67541 9.94837 9.77799 9.91011 9.85075 9.8342C9.92366 9.75816 9.96697 9.67438 9.98094 9.58326C9.99487 9.49203 9.99562 9.38854 9.98358 9.27283C9.97124 9.15742 9.95907 9.07671 9.94697 9.0311Z"/>
</svg>
