<svg width="10" height="10" viewBox="0 0 10 10" xmlns="http://www.w3.org/2000/svg">
<path d="M10 4.87122C10 7.56156 7.80233 9.74244 5.09089 9.74244C4.23011 9.74244 3.42144 9.52244 2.71789 9.13633L0 10L0.886111 7.38644C0.439111 6.65244 0.181667 5.79156 0.181667 4.87122C0.181667 2.18089 2.37956 0 5.09089 0C7.80256 0 10 2.18089 10 4.87122ZM5.09089 0.775778C2.81489 0.775778 0.963556 2.613 0.963556 4.87122C0.963556 5.76733 1.25567 6.59722 1.74978 7.27233L1.23411 8.79333L2.82022 8.28922C3.47189 8.71711 4.25256 8.96667 5.091 8.96667C7.36667 8.96667 9.21833 7.12967 9.21833 4.87144C9.21833 2.61322 7.36678 0.775778 5.09089 0.775778ZM7.56989 5.99311C7.53956 5.94344 7.45944 5.91344 7.33922 5.85378C7.21878 5.79411 6.627 5.50511 6.517 5.46544C6.40667 5.42567 6.32622 5.40567 6.24611 5.52511C6.166 5.64467 5.93533 5.91344 5.865 5.99311C5.79478 6.073 5.72467 6.083 5.60422 6.02322C5.484 5.96356 5.09633 5.83733 4.63667 5.43067C4.279 5.11422 4.03744 4.72356 3.96722 4.60389C3.89711 4.48444 3.95989 4.41989 4.02 4.36044C4.07422 4.30689 4.14044 4.221 4.20056 4.15133C4.26089 4.08156 4.28089 4.03189 4.32078 3.95211C4.36111 3.87244 4.341 3.80278 4.31078 3.74289C4.28078 3.68322 4.03989 3.09567 3.93967 2.85656C3.83944 2.61767 3.73933 2.65744 3.669 2.65744C3.59889 2.65744 3.51856 2.64744 3.43833 2.64744C3.35811 2.64744 3.22767 2.67733 3.11733 2.79678C3.00711 2.91633 2.69633 3.20522 2.69633 3.79267C2.69633 4.38022 3.12733 4.94789 3.18767 5.02744C3.24778 5.107 4.01989 6.35189 5.24322 6.83C6.46667 7.30789 6.46667 7.14844 6.68733 7.12844C6.90778 7.10856 7.39911 6.83967 7.49978 6.561C7.59978 6.28189 7.59978 6.04289 7.56989 5.99311Z"/>
</svg>
