<svg width="72" height="72" viewBox="0 0 72 72" fill="none" xmlns="http://www.w3.org/2000/svg">
<g clip-path="url(#clip0_224_1133)">
<path d="M64.8899 36.9C64.4211 36.1795 64.4211 35.249 64.8899 34.5286L67.4984 30.5191C69.8745 26.8671 68.2735 21.9606 64.2124 20.406L59.7454 18.6957C58.9428 18.3882 58.3955 17.6353 58.3514 16.7769L58.1052 12.0001C57.8808 7.6497 53.7019 4.61986 49.5021 5.74988L44.8831 6.99178C44.0533 7.21472 43.1679 6.92719 42.6277 6.25881L39.6206 2.53882C36.8819 -0.848994 31.721 -0.843553 28.9869 2.53882L25.9796 6.25895C25.4395 6.92747 24.5543 7.21472 23.7242 6.99192L19.105 5.75002C14.897 4.61833 10.7257 7.65821 10.5019 12.0003L10.2557 16.777C10.2113 17.6353 9.66431 18.3883 8.86172 18.6957L4.39495 20.406C0.325359 21.9638 -1.2628 26.8743 1.1087 30.5193L3.71736 34.5286C4.18597 35.2489 4.18597 36.1797 3.71736 36.9L1.10912 40.9093C-1.26727 44.5617 0.334288 49.4684 4.39509 51.0225L8.86214 52.7329C9.66473 53.0403 10.2119 53.7933 10.2561 54.6517L10.5023 59.4284C10.7267 63.7797 14.9063 66.8083 19.1054 65.6787L23.7244 64.4368C24.5546 64.2141 25.4396 64.5014 25.9799 65.1697L28.987 68.8896C31.7263 72.2784 36.8871 72.2714 39.6208 68.8896L42.6278 65.1697C43.168 64.5015 44.0538 64.2142 44.8833 64.4368L49.5025 65.6787C53.7094 66.8108 57.8817 63.771 58.1056 59.4284L58.3518 54.6517C58.3962 53.7934 58.9432 53.0403 59.7458 52.733L64.2125 51.0226C68.2819 49.4649 69.8702 44.5545 67.4989 40.9093L64.8899 36.9ZM62.5453 46.6683L58.0782 48.3787C55.5547 49.3449 53.8343 51.7129 53.6952 54.4114L53.4489 59.1882C53.3776 60.5723 52.0488 61.5349 50.7129 61.176L46.0936 59.9341C43.4841 59.2321 40.7001 60.1371 39.0016 62.2385L35.9948 65.9584C35.1236 67.0361 33.4824 67.0339 32.6128 65.9584L29.606 62.2385C28.2893 60.6096 26.3206 59.6998 24.2863 59.6998C23.6963 59.6998 23.1006 59.7762 22.5137 59.9341L17.8945 61.176C16.5557 61.5354 15.2298 60.5695 15.1584 59.1882L14.9122 54.4114C14.7731 51.7129 13.0525 49.3448 10.5291 48.3787L6.06207 46.6682C4.76786 46.1726 4.26298 44.6113 5.01716 43.4521L7.62568 39.4428C9.0993 37.1777 9.0993 34.2506 7.62568 31.9858L5.01716 27.9765C4.2613 26.8149 4.77051 25.2548 6.06221 24.7602L10.5293 23.0499C13.0528 22.0836 14.7732 19.7156 14.9123 17.0171L15.1586 12.2404C15.2298 10.8563 16.5587 9.89369 17.8946 10.2525L22.5138 11.4944C25.1233 12.1963 27.9072 11.2914 29.6059 9.19001L32.613 5.47003C33.4842 4.39247 35.1255 4.3947 35.9948 5.47003L39.0019 9.19015C40.7008 11.2916 43.4841 12.1964 46.0939 11.4944L50.7132 10.2525C52.0518 9.89299 53.3778 10.8591 53.4492 12.2404L53.6952 17.0171C53.8343 19.7156 55.5548 22.0838 58.0782 23.0499L62.5454 24.7604C63.8395 25.2556 64.3444 26.8173 63.5903 27.9765L60.982 31.9856C59.508 34.2506 59.508 37.1777 60.9818 39.4428L63.5903 43.452C64.3459 44.6138 63.837 46.1738 62.5453 46.6683Z" fill="#F08951"/>
<path d="M45.9504 23.8342C45.0401 22.9239 43.5639 22.9239 42.6535 23.8342L20.895 45.5927C19.9847 46.503 19.9847 47.9792 20.8951 48.8896C21.3503 49.3448 21.947 49.5725 22.5435 49.5725C23.1401 49.5725 23.7369 49.3448 24.192 48.8896L45.9505 27.1309C46.8609 26.2208 46.8609 24.7446 45.9504 23.8342Z" fill="#F08951"/>
<path d="M24.8748 23.1512C22.3038 23.1512 20.2123 25.2429 20.2123 27.8137C20.2123 30.3847 22.3041 32.4762 24.8748 32.4762C27.4458 32.4762 29.5373 30.3846 29.5373 27.8137C29.5374 25.2429 27.4458 23.1512 24.8748 23.1512Z" fill="#F08951"/>
<path d="M41.9707 40.2473C39.3997 40.2473 37.3082 42.339 37.3082 44.9098C37.3082 47.4808 39.3999 49.5723 41.9707 49.5723C44.5416 49.5723 46.6332 47.4807 46.6332 44.9098C46.6334 42.339 44.5417 40.2473 41.9707 40.2473Z" fill="#F08951"/>
</g>
<defs>
<clipPath id="clip0_224_1133">
<rect width="71.4286" height="71.4286" fill="white"/>
</clipPath>
</defs>
</svg>
