<svg width="72" height="72" viewBox="0 0 72 72" fill="none" xmlns="http://www.w3.org/2000/svg">
<g clip-path="url(#clip0_224_1081)">
<path d="M49.484 37.0009C49.0106 37.0009 48.5513 37.0641 48.114 37.1808C47.4178 35.0663 45.4221 33.5345 43.0736 33.5345C42.3988 33.5345 41.7539 33.662 41.1598 33.8925C40.2212 32.3982 38.5569 31.402 36.6628 31.402C36.2838 31.402 35.9142 31.4424 35.5576 31.5181V26.0141C35.5576 24.3667 34.7992 22.8925 33.6132 21.9209C34.0752 20.3596 34.3094 18.7405 34.3094 17.0866C34.3094 7.66482 26.6296 0 17.1894 0C7.74976 0 0.0699463 7.66482 0.0699463 17.0866C0.0699463 26.5078 7.74976 34.1726 17.19 34.1726C19.907 34.1726 22.5623 33.5285 24.9479 32.3187V42.4374L24.9216 42.4123C24.0458 41.5617 22.891 41.0859 21.669 41.0728C20.145 41.0587 18.6899 41.784 17.79 43.0173C16.8902 44.251 16.6423 45.8516 17.1277 47.299L18.9498 52.736C19.9359 55.6766 21.5128 58.3147 23.6363 60.5779L27.7255 64.9343V71.4286H49.2546V65.1229L54.7891 55.366V42.2952C54.7891 39.3759 52.4095 37.0009 49.484 37.0009ZM17.1894 29.9813C10.0654 29.9813 4.26941 24.1966 4.26941 17.0866C4.26941 9.97598 10.0654 4.19126 17.1894 4.19126C24.3139 4.19126 30.11 9.97598 30.11 17.0866C30.11 18.346 29.9303 19.5776 29.577 20.7639C26.9698 21.0958 24.9479 23.3231 24.9479 26.0141V27.395C22.7184 29.0669 19.9987 29.9813 17.1894 29.9813ZM50.5896 54.2619L45.0552 64.0188V67.2373H31.9249V63.2777L26.7011 57.7126C24.9932 55.8924 23.7253 53.7709 22.9325 51.4058L21.1099 45.9693C21.0378 45.7529 21.111 45.5862 21.1852 45.4843C21.2595 45.3824 21.3938 45.2576 21.6248 45.2641C21.7629 45.2657 21.8939 45.3197 21.9928 45.4156L24.9479 48.2859V51.4319H29.1473V26.0141C29.1473 25.4053 29.6431 24.9105 30.2525 24.9105C30.8624 24.9105 31.3582 25.4053 31.3582 26.0141V48.317H35.5576V36.6963C35.5576 36.0881 36.0534 35.5933 36.6633 35.5933C37.2727 35.5933 37.769 36.0881 37.769 36.6963V47.4826H41.9685V38.8293C41.9685 38.2205 42.4643 37.7257 43.0736 37.7257C43.6835 37.7257 44.1793 38.2205 44.1793 38.8293V47.4826H48.3788V42.2952C48.3788 41.687 48.8751 41.1922 49.4845 41.1922C50.0944 41.1922 50.5902 41.687 50.5902 42.2952V54.2619H50.5896Z" fill="#F08951"/>
<path d="M22.0976 18.0108C21.6564 20.3629 19.5924 22.0697 17.1894 22.0697C14.8382 22.0697 12.783 20.4064 12.3025 18.1144L8.19202 18.9727C9.07767 23.1961 12.8616 26.2609 17.1894 26.2609C21.6127 26.2609 25.413 23.1154 26.225 18.7814L22.0976 18.0108Z" fill="#F08951"/>
<path d="M12.4586 15.0272C13.5566 15.0272 14.6088 14.0632 14.558 12.9313C14.5067 11.7961 13.6353 10.8359 12.4586 10.8359C11.36 10.8359 10.3078 11.7994 10.3586 12.9313C10.4094 14.0664 11.2808 15.0272 12.4586 15.0272Z" fill="#F08951"/>
<path d="M21.5848 15.0272C22.6829 15.0272 23.735 14.0632 23.6843 12.9313C23.6335 11.7961 22.762 10.8359 21.5848 10.8359C20.4862 10.8359 19.434 11.7994 19.4848 12.9313C19.5361 14.0664 20.4076 15.0272 21.5848 15.0272Z" fill="#F08951"/>
<path d="M54.4102 0.245224C44.9705 0.245224 37.2902 7.91004 37.2902 17.3318C37.2902 26.753 44.9705 34.4178 54.4102 34.4178C63.8498 34.4178 71.5296 26.753 71.5296 17.3318C71.5296 7.91004 63.8498 0.245224 54.4102 0.245224ZM54.4102 30.2266C47.2857 30.2266 41.4896 24.4418 41.4896 17.3318C41.4896 10.2212 47.2857 4.43649 54.4102 4.43649C61.5347 4.43649 67.3307 10.2212 67.3307 17.3318C67.3307 24.4418 61.5347 30.2266 54.4102 30.2266Z" fill="#F08951"/>
<path d="M54.4947 16.4452C50.0719 16.4452 46.2716 19.5907 45.4591 23.9247L49.587 24.6953C50.0277 22.3432 52.0917 20.6364 54.4947 20.6364C56.8459 20.6364 58.9017 22.2996 59.3822 24.5917L63.4921 23.7334C62.607 19.51 58.823 16.4452 54.4947 16.4452Z" fill="#F08951"/>
<path d="M49.734 14.7525C50.8326 14.7525 51.8848 13.7885 51.834 12.6572C51.7827 11.5215 50.9113 10.5613 49.734 10.5613C48.636 10.5613 47.5838 11.5253 47.6346 12.6572C47.6854 13.7923 48.5574 14.7525 49.734 14.7525Z" fill="#F08951"/>
<path d="M58.8608 14.7525C59.9589 14.7525 61.011 13.7885 60.9603 12.6572C60.9089 11.5215 60.0375 10.5613 58.8608 10.5613C57.7622 10.5613 56.71 11.5253 56.7608 12.6572C56.8121 13.7923 57.6836 14.7525 58.8608 14.7525Z" fill="#F08951"/>
</g>
<defs>
<clipPath id="clip0_224_1081">
<rect width="71.4286" height="71.4286" fill="white"/>
</clipPath>
</defs>
</svg>
