<svg width="72" height="72" viewBox="0 0 72 72" fill="none" xmlns="http://www.w3.org/2000/svg">
<g clip-path="url(#clip0_224_1149)">
<path d="M21.7198 43.3873H17.1247V36.2745C17.1247 33.9606 16.201 31.8598 14.7046 30.3176C17.2604 28.619 18.9492 25.7149 18.9492 22.4222C18.9492 17.1983 14.6991 12.9476 9.47462 12.9476C4.25012 12.9476 0 17.1977 0 22.4222C0 25.2686 1.26321 27.8233 3.25612 29.5617C1.27465 31.1312 0 33.5557 0 36.2745V57.4602H13.9683V71.4286H28.0413V49.7088C28.0413 46.2232 25.2053 43.3873 21.7198 43.3873ZM9.47462 17.1329C12.3912 17.1329 14.764 19.5056 14.764 22.4222C14.764 25.3389 12.3912 27.7121 9.47462 27.7121C6.55801 27.7121 4.18527 25.3389 4.18527 22.4222C4.18527 19.5056 6.55801 17.1329 9.47462 17.1329ZM23.856 67.2433H18.1536V53.275H4.18527V36.2745C4.18527 33.8609 6.14875 31.8974 8.56236 31.8974C10.976 31.8974 12.9395 33.8609 12.9395 36.2745V47.5726H21.7198C22.8974 47.5726 23.856 48.5311 23.856 49.7088V67.2433Z" fill="#F08951"/>
<path d="M68.1725 29.5617C70.1654 27.8233 71.4286 25.2686 71.4286 22.4222C71.4286 17.1977 67.1785 12.9476 61.954 12.9476C56.7295 12.9476 52.4794 17.1977 52.4794 22.4222C52.4794 25.7143 54.1682 28.619 56.7241 30.3176C55.2276 31.8598 54.3039 33.9606 54.3039 36.274V43.3873H49.7088C46.2233 43.3873 43.3873 46.2232 43.3873 49.7088V71.4286H57.4603V57.4602H71.4286V36.2745C71.4286 33.5557 70.154 31.1312 68.1725 29.5617ZM61.954 17.1329C64.8706 17.1329 67.2434 19.5056 67.2434 22.4222C67.2434 25.3389 64.8706 27.7121 61.954 27.7121C59.0374 27.7121 56.6647 25.3389 56.6647 22.4222C56.6647 19.5056 59.0374 17.1329 61.954 17.1329ZM67.2434 53.275H53.275V67.2433H47.5726V49.7088C47.5726 48.5311 48.5312 47.5726 49.7088 47.5726H58.4892V36.2745C58.4892 33.8609 60.4527 31.8974 62.8663 31.8974C65.2799 31.8974 67.2434 33.8609 67.2434 36.2745V53.275Z" fill="#F08951"/>
<path d="M49.1071 16.9732V5.9057C49.1071 2.64903 46.4581 0 43.2014 0H28.2271C24.9704 0 22.3214 2.64903 22.3214 5.9057V16.9732C22.3214 20.2299 24.9704 22.8795 28.2271 22.8795H30.7622L35.7143 31.4565L40.6663 22.8795H43.2014C46.4581 22.8795 49.1071 20.2299 49.1071 16.9732ZM44.9219 16.9732C44.9219 17.9225 44.1502 18.6942 43.2014 18.6942H38.25L35.7143 23.086L33.1786 18.6942H28.2271C27.2783 18.6942 26.5067 17.9225 26.5067 16.9732V5.9057C26.5067 4.95693 27.2783 4.18527 28.2271 4.18527H43.2014C44.1502 4.18527 44.9219 4.95693 44.9219 5.9057V16.9732Z" fill="#F08951"/>
</g>
<defs>
<clipPath id="clip0_224_1149">
<rect width="71.4286" height="71.4286" fill="white"/>
</clipPath>
</defs>
</svg>
