<svg width="72" height="72" viewBox="0 0 72 72" fill="none" xmlns="http://www.w3.org/2000/svg">
<path d="M64.6764 20.2148L44.7405 2.26005C44.2243 1.79967 43.5408 1.5346 42.8293 1.5346H8.64957C7.07312 1.5346 5.80359 2.80413 5.80359 4.38058V67.048C5.80359 68.6244 7.07312 69.894 8.64957 69.894H62.779C64.3555 69.894 65.625 68.6244 65.625 67.048V22.3354C65.625 21.5262 65.2762 20.7589 64.6764 20.2148ZM45.1312 10.2818L58.7472 22.5446H45.1312V10.2818ZM59.9191 64.202H11.5095V7.22656H39.4392V25.3906C39.4392 26.9671 40.7087 28.2366 42.2852 28.2366H59.9331V64.202H59.9191Z" fill="#F08951"/>
<path d="M16.6295 38.5603C16.6295 40.1367 17.899 41.4063 19.4755 41.4063H51.9532C53.5296 41.4063 54.7992 40.1367 54.7992 38.5603C54.7992 36.9838 53.5296 35.7143 51.9532 35.7143H19.4755C17.899 35.7143 16.6295 36.9838 16.6295 38.5603Z" fill="#F08951"/>
<path d="M51.9532 49.6094H19.4755C17.899 49.6094 16.6295 50.8789 16.6295 52.4554C16.6295 54.0318 17.899 55.3013 19.4755 55.3013H51.9532C53.5296 55.3013 54.7992 54.0318 54.7992 52.4554C54.7992 50.8789 53.5296 49.6094 51.9532 49.6094Z" fill="#F08951"/>
</svg>
