<svg width="72" height="72" viewBox="0 0 72 72" fill="none" xmlns="http://www.w3.org/2000/svg">
<g clip-path="url(#clip0_224_1102)">
<path d="M53.9466 42.4669C48.9819 42.4669 44.943 46.5058 44.943 51.4705C44.943 56.4353 48.9819 60.4742 53.9466 60.4742C58.9122 60.4742 62.9502 56.4353 62.9502 51.4705C62.9502 46.5058 58.9113 42.4669 53.9466 42.4669ZM53.9466 55.9724C51.4639 55.9724 49.4448 53.9532 49.4448 51.4705C49.4448 48.9878 51.4639 46.9687 53.9466 46.9687C56.4293 46.9687 58.4484 48.9878 58.4484 51.4705C58.4484 53.9534 56.4293 55.9724 53.9466 55.9724Z" fill="#F08951"/>
<path d="M23.1843 42.4669C18.2196 42.4669 14.1807 46.5058 14.1807 51.4705C14.1807 56.4353 18.2196 60.4742 23.1843 60.4742C28.149 60.4742 32.1879 56.4353 32.1879 51.4705C32.1879 46.5058 28.149 42.4669 23.1843 42.4669ZM23.1843 55.9724C20.7016 55.9724 18.6825 53.9532 18.6825 51.4705C18.6825 48.9878 20.7016 46.9687 23.1843 46.9687C25.6663 46.9687 27.6861 48.9878 27.6861 51.4705C27.6861 53.9534 25.667 55.9724 23.1843 55.9724Z" fill="#F08951"/>
<path d="M60.0098 16.6957C59.6271 15.9357 58.8491 15.4562 57.9982 15.4562H46.1434V19.958H56.6101L62.7393 32.1488L66.7624 30.126L60.0098 16.6957Z" fill="#F08951"/>
<path d="M47.1939 49.2948H30.1621V53.7966H47.1939V49.2948Z" fill="#F08951"/>
<path d="M16.4315 49.2948H8.62852C7.38522 49.2948 6.37769 50.3025 6.37769 51.5456C6.37769 52.7889 7.38536 53.7965 8.62852 53.7965H16.4317C17.675 53.7965 18.6825 52.7888 18.6825 51.5456C18.6825 50.3023 17.6748 49.2948 16.4315 49.2948Z" fill="#F08951"/>
<path d="M70.956 35.5342L66.5285 29.8319C66.1031 29.2827 65.4466 28.9615 64.751 28.9615H48.3944V13.2052C48.3944 11.9619 47.3868 10.9544 46.1436 10.9544H8.62852C7.38522 10.9544 6.37769 11.9621 6.37769 13.2052C6.37769 14.4484 7.38536 15.4561 8.62852 15.4561H43.8926V31.2124C43.8926 32.4557 44.9003 33.4632 46.1435 33.4632H63.6488L66.9268 37.6859V49.2945H60.6993C59.456 49.2945 58.4484 50.3022 58.4484 51.5454C58.4484 52.7887 59.4561 53.7962 60.6993 53.7962H69.1776C70.4209 53.7962 71.4285 52.7885 71.4286 51.5454V36.9148C71.4286 36.4151 71.262 35.9289 70.956 35.5342Z" fill="#F08951"/>
<path d="M16.2816 37.8902H5.92735C4.68405 37.8902 3.67651 38.8979 3.67651 40.141C3.67651 41.3843 4.68419 42.3919 5.92735 42.3919H16.2814C17.5247 42.3919 18.5323 41.3842 18.5323 40.141C18.5324 38.8979 17.5247 37.8902 16.2816 37.8902Z" fill="#F08951"/>
<path d="M21.4586 29.0366H2.25084C1.00767 29.0366 0 30.0442 0 31.2875C0 32.5308 1.00767 33.5384 2.25084 33.5384H21.4586C22.7019 33.5384 23.7094 32.5307 23.7094 31.2875C23.7094 30.0444 22.7019 29.0366 21.4586 29.0366Z" fill="#F08951"/>
<path d="M25.1351 20.183H5.92735C4.68405 20.183 3.67651 21.1907 3.67651 22.4339C3.67651 23.6772 4.68419 24.6847 5.92735 24.6847H25.1351C26.3784 24.6847 27.3859 23.677 27.3859 22.4339C27.3861 21.1907 26.3784 20.183 25.1351 20.183Z" fill="#F08951"/>
</g>
<defs>
<clipPath id="clip0_224_1102">
<rect width="71.4286" height="71.4286" fill="white"/>
</clipPath>
</defs>
</svg>
