<svg width="72" height="72" viewBox="0 0 72 72" fill="none" xmlns="http://www.w3.org/2000/svg">
<path d="M70.2307 9.59834C70.8923 9.59834 71.4286 9.13001 71.4286 8.55203V3.09542C71.4286 1.38867 69.8388 0 67.8847 0H20.5743C18.6202 0 17.0306 1.38867 17.0306 3.09542V7.17214H11.9725C10.0185 7.17214 8.42886 8.56081 8.42886 10.2678V14.3446H3.56597C1.61191 14.3446 0.0221412 15.7332 0.0221412 17.44C0.0221412 56.088 -0.13198 54.4962 0.373027 54.9374C20.0515 72.1266 19.0423 71.4246 19.7441 71.4246H26.6795C27.3411 71.4246 27.8774 70.9562 27.8774 70.3783C27.8774 69.8003 27.3411 69.3319 26.6795 69.3319H20.9419V56.2469C20.9419 54.54 19.3522 53.1512 17.3982 53.1512H2.41781V17.4401C2.41781 16.8871 2.93288 16.4373 3.56597 16.4373C5.68359 16.4373 49.1383 16.4373 50.8763 16.4373C51.5094 16.4373 52.0245 16.8873 52.0245 17.4401C52.0245 17.6965 52.0245 66.5144 52.0245 68.3292C52.0245 68.8822 51.5092 69.3319 50.8763 69.3319H30.9386C30.277 69.3319 29.7407 69.8003 29.7407 70.3783C29.7407 70.9562 30.277 71.4246 30.9386 71.4246H50.8763C52.8304 71.4246 54.4201 70.0359 54.4201 68.3292V64.2524H59.2825C61.2366 64.2524 62.8265 62.8638 62.8265 61.1569V57.08H67.8846C69.8385 57.08 71.4284 55.6913 71.4284 53.9846V12.1786C71.4284 11.6006 70.8921 11.1322 70.2306 11.1322C69.5689 11.1322 69.0327 11.6006 69.0327 12.1786V53.9846C69.0327 54.5376 68.5177 54.9874 67.8846 54.9874H62.8265V10.2678C62.8265 8.56095 61.2368 7.17214 59.2825 7.17214H19.4263V3.09542C19.4263 2.54241 19.9413 2.09263 20.5743 2.09263H67.8847C68.5178 2.09263 69.0329 2.54255 69.0329 3.09542V8.55189C69.0329 9.12987 69.5691 9.59834 70.2307 9.59834ZM17.3981 55.2438C18.0312 55.2438 18.5461 55.6938 18.5461 56.2469V67.8522C18.1297 67.4885 5.85687 56.7682 4.11187 55.2438H17.3981ZM59.2827 9.26478C59.9158 9.26478 60.431 9.71483 60.431 10.2677C60.431 10.5241 60.431 59.3419 60.431 61.1566C60.431 61.7096 59.9158 62.1595 59.2827 62.1595H54.4203V17.44C54.4203 15.7332 52.8305 14.3446 50.8764 14.3446H10.8244V10.2678C10.8244 9.71483 11.3394 9.26492 11.9724 9.26492C13.5866 9.26478 57.6651 9.26478 59.2827 9.26478Z" fill="#F08951"/>
</svg>
