<svg width="5694" height="2791" viewBox="0 0 5694 2791" fill="none" xmlns="http://www.w3.org/2000/svg">
<g clip-path="url(#clip0_357_125)">
<path d="M2430.67 1.86663C2430.67 2.1333 2480.53 35.4666 2541.33 76C2602.27 116.533 2651.87 149.867 2651.6 150.133C2651.47 150.4 2491.33 126 2296 96.1333C2100.53 66.1333 1940.53 41.7333 1940.27 42C1940 42.2666 2023.87 84.5333 2126.53 136.133C2229.2 187.733 2313.07 230.133 2312.8 230.267C2312.67 230.533 2085.07 215.067 1807.33 196C1529.47 176.933 1301.6 161.467 1300.93 161.733C1300.27 161.867 1319.07 174.933 1342.67 190.667C1366.27 206.4 1385.73 219.6 1386 220C1386.27 220.533 1384.93 220.667 1382.93 220.4C1370.93 218.933 1174.27 201.333 1173.33 201.6C1172.8 201.867 1213.87 230.8 1264.67 266C1315.47 301.2 1356.8 330.267 1356.4 330.667C1356.13 331.067 1244.4 358.133 1108.27 390.8C972.133 423.6 861.6 450.667 862.666 451.2C863.733 451.6 1035.73 480.8 1244.67 516.133C1453.73 551.467 1624.93 580.533 1625.2 580.8C1625.6 581.2 1623.73 583.467 1621.33 586L1616.8 590.667L1179.73 590.933L742.666 591.333L929.333 645.333C1032 675.067 1116 699.6 1116 700C1116 700.4 865.466 755.2 559.333 822C227.2 894.4 3.59984 943.733 4.93318 944.267C6.26651 944.8 256.933 994.133 562 1054C1192.53 1177.6 1124.27 1164.13 1123.73 1164.67C1123.47 1164.93 1014.8 1170.67 882 1177.47C729.466 1185.47 642.666 1190.4 646 1191.07C648.933 1191.6 732.933 1201.6 832.666 1213.33C932.4 1225.07 1014.93 1234.8 1016 1235.07C1017.07 1235.2 925.866 1272.13 813.333 1317.07C700.8 1362 490.266 1446 345.733 1503.73C201.066 1561.47 83.1998 1608.8 83.7332 1609.07C84.2665 1609.2 257.466 1597.6 468.666 1583.33C679.733 1568.93 852.933 1557.47 853.466 1557.6C854 1557.87 761.466 1586.53 647.866 1621.33C534.266 1656.13 442 1684.93 442.933 1685.2C443.733 1685.47 512.666 1692.4 596.133 1700.53C687.333 1709.47 747.866 1715.87 747.733 1716.67C747.733 1717.33 708.133 1765.73 659.866 1824C611.466 1882.27 572 1930.53 572 1931.33C571.866 1932 683.466 1957.87 819.866 1988.67C956.4 2019.6 1068.27 2045.2 1068.67 2045.47C1068.93 2045.87 1071.47 2070.13 1074 2099.47C1076.67 2128.67 1078.93 2153.6 1079.07 2154.67C1079.33 2156.4 1090.8 2156.8 1169.33 2157.33L1259.33 2158L1274 2199.33L1288.67 2240.67L1293.33 2240.27C1300.93 2239.6 1445.87 2220 1447.47 2219.47C1448.4 2219.07 1448.13 2213.33 1446.53 2200.4C1423.33 2017.33 1417.73 1790.93 1432.67 1642C1450.67 1463.73 1491.33 1345.47 1557.33 1280C1576.13 1261.33 1598.53 1246.4 1621.07 1237.33C1623.47 1236.4 1631.6 1229.6 1639.07 1222.13C1664 1197.2 1693.2 1181.2 1728 1173.2C1744.8 1169.33 1776.4 1168.4 1795.73 1171.2C1813.6 1173.87 1832.67 1178.67 1846.13 1183.87L1856 1187.73L1863.33 1173.33C1907.47 1087.2 1986.67 1030.93 2075.47 1022.8L2087.47 1021.73L2102.13 1011.47C2123.47 996.267 2148.8 981.333 2182 964.667C2346 882 2580.27 828.133 2850 811.333C2914.8 807.333 2938.8 806.533 3021.33 805.733C3182.67 804.267 3342.8 812.667 3512 831.467C3808.13 864.4 4091.33 958.533 4342.67 1107.73C4455.6 1174.67 4560.67 1252.67 4642 1329.87L4662 1348.93L4684.67 1349.87C4816.27 1355.33 4983.73 1382.53 5110 1419.07C5223.33 1452 5327.07 1496.93 5403.33 1546.4C5411.33 1551.6 5418.13 1555.6 5418.4 1555.33C5419.2 1554.67 5396.67 1519.07 5374.13 1485.33C5293.07 1363.6 5188.8 1230.8 5084.8 1116.67C4865.33 875.867 4630.53 686.4 4384 551.333C4070.93 379.867 3549.73 216.533 2894.27 84.6666C2745.87 54.8 2585.07 25.6 2468 7.3333C2451.47 4.79996 2436.4 2.39996 2434.4 1.99996C2432.27 1.7333 2430.67 1.59996 2430.67 1.86663ZM2141.87 812C2234.93 816.4 2311.2 820.133 2311.47 820.4C2311.73 820.533 2206.8 845.467 2078.4 875.6L1845.07 930.4L1794.53 911.6C1766.8 901.2 1744 892.4 1744 892C1744 890.4 1963.47 804.267 1968 804.133C1970.53 804.133 2048.8 807.6 2141.87 812Z" fill="#F08951"/>
<path d="M3053.33 892.933C2615.07 904.533 2305.2 964.8 2151.07 1068.13C2110 1095.73 2075.33 1132.27 2058.8 1165.2C2052 1178.67 2053.07 1178.53 2067.6 1163.73C2132.4 1097.87 2232 1044.53 2343.33 1016C2408.4 999.333 2465.47 992.267 2544 991.067L2594.13 990.267L2658.53 1209.47C2694 1330 2723.6 1430.67 2724.27 1432.93C2724.93 1435.33 2726 1437.33 2726.67 1437.33C2727.33 1437.33 2744.13 1427.73 2764 1416.13C2783.87 1404.4 2799.73 1395.33 2799.33 1395.87C2799.07 1396.53 2792.4 1404.4 2784.67 1413.47C2776.93 1422.53 2770.67 1430.4 2770.67 1430.93C2770.67 1431.6 2782.4 1432 2796.67 1432C2819.2 1432 2822.67 1431.73 2822.67 1430C2822.67 1428.8 2792.93 1325.2 2756.67 1199.73C2720.4 1074.13 2691.07 971.067 2691.6 970.533C2692.27 970 2702.93 967.733 2715.33 965.467C2786 952.533 2893.73 936.933 3024 920.8L3082 913.6L3190.67 915.467C3393.33 918.667 3468.8 921.6 3503.33 927.467C3510 928.533 3530.4 932.8 3548.67 936.8C3859.73 1004.93 4156 1147.87 4413.33 1354C4444.8 1379.2 4483.07 1411.33 4494.67 1422.27L4502 1429.33L4496.67 1428.67C4490.8 1427.87 4411.6 1422.53 4358.67 1419.33C4220.4 1411.07 4095.33 1405.6 3974.67 1402.67C3874.4 1400.27 3707.2 1401.47 3669.33 1404.8L3659.33 1405.73L3675.33 1407.6C3846 1426.8 4043.07 1470.4 4196.13 1522.53C4304.8 1559.6 4405.47 1605.07 4481.73 1651.87L4490.67 1657.33H4670.8H4850.8L4857.47 1664C4864.27 1670.8 4870.67 1682.27 4870.67 1687.73C4870.67 1696.67 4860.93 1707.33 4848.67 1711.87C4822 1721.87 4761.07 1725.87 4634.27 1725.87C4584.67 1726 4545.07 1726.4 4546.27 1726.93C4547.6 1727.47 4617.87 1741.47 4702.4 1758.27C4786.8 1774.93 4856 1789.07 4856 1789.73C4856 1791.33 4816.13 1810.13 4800.27 1815.87C4644.93 1872.27 4435.33 1856.67 4219.73 1772.67C4209.33 1768.53 4200.8 1765.47 4200.67 1765.6C4200.53 1765.87 4239.07 1808 4286.27 1859.33C4356.13 1935.2 4373.07 1952.8 4376.4 1953.6C4388.8 1956.27 4603.73 1964.13 4739.33 1966.8C4823.87 1968.53 5007.73 1967.6 5050.67 1965.47C5163.33 1959.6 5252.93 1948.4 5340.4 1929.2C5379.47 1920.67 5425.6 1908 5447.33 1899.87L5454.67 1897.2L5446.8 1885.6C5434.67 1867.33 5408.67 1826 5390.4 1795.33C5338.8 1708.93 5308.4 1645.47 5301.87 1611.2C5299.2 1596.53 5300.13 1588.93 5305.33 1583.73C5308.53 1580.53 5310.13 1580 5316.4 1580C5323.47 1580 5334.27 1582.93 5342.53 1587.33C5350 1591.07 5348.53 1588.67 5338.4 1580C5281.47 1531.73 5167.33 1493.87 5021.33 1474.67C4948.4 1465.2 4873.2 1460.53 4773.33 1459.33L4715.33 1458.53L4628.93 1443.87L4542.67 1429.2L4536.27 1422.4C4526.4 1411.73 4484.93 1372.8 4463.47 1354C4364 1266.93 4254.27 1190 4132.67 1122.13C4097.87 1102.67 4018.93 1063.2 3983.33 1047.47C3802.27 967.333 3616 918.267 3429.33 901.467C3379.33 896.933 3360.27 895.867 3305.6 895.067C3276.8 894.667 3252.93 893.733 3252.53 893.2C3252 892.133 3088.53 892 3053.33 892.933Z" fill="#F08951"/>
<path d="M3043.33 945.333C2898.13 949.867 2803.33 958.4 2748.27 972.133C2728.53 976.933 2717.33 981.067 2717.33 983.467C2717.33 984.933 2743.07 1063.6 2839.33 1356.67L2864 1431.47L2881.6 1429.87C3152.8 1404.8 3446.4 1386.93 3725.33 1378.4C3799.73 1376.13 4050.67 1376.13 4106.67 1378.4C4248.93 1384.13 4352.93 1393.73 4426.4 1408C4433.47 1409.33 4439.47 1410.4 4439.6 1410.13C4440.13 1409.6 4412.53 1386.53 4389.47 1368C4305.2 1300.53 4200.53 1229.33 4102.67 1173.07C3904.93 1059.2 3708 984.267 3520 951.467C3503.73 948.667 3493.33 947.867 3454.67 946.533C3398.13 944.8 3092.8 943.867 3043.33 945.333Z" fill="#F08951"/>
<path d="M2490 1022.27C2487.07 1022.4 2476.27 1023.33 2466 1024C2410.4 1028.4 2353.6 1039.6 2304 1055.87C2219.07 1084 2150.4 1128.4 2102.27 1186.4C2085.73 1206.27 2086.4 1202.8 2096.13 1220.27C2120.13 1263.6 2147.6 1298 2174 1317.73C2184.53 1325.6 2201.33 1334.67 2205.33 1334.67C2206.53 1334.67 2208.4 1332.93 2209.73 1330.8C2222.53 1309.07 2258.13 1288.8 2296.8 1281.33C2345.73 1272 2406.13 1276.13 2479.6 1294.13L2489.2 1296.53L2549.6 1372.8L2610 1449.2H2650.27L2690.4 1449.33L2645.2 1269.6C2620.27 1170.8 2596.13 1074.93 2591.6 1056.67L2583.2 1023.33L2573.87 1022.53C2564.53 1021.6 2499.87 1021.47 2490 1022.27Z" fill="#F08951"/>
<path d="M2010.53 1190.93C1977.6 1193.87 1938.4 1212.67 1892.93 1247.07L1875.87 1260L1868 1258C1841.47 1251.2 1797.07 1249.6 1769.2 1254.53C1741.07 1259.47 1716.67 1268.8 1695.33 1282.93C1681.2 1292.13 1659.73 1313.2 1648.8 1328.4C1622.93 1364.53 1606.4 1416 1600.13 1479.33C1598.13 1499.47 1596.8 1545.33 1598.13 1545.33C1598.8 1545.2 1602.27 1540.27 1605.73 1534.13C1625.87 1499.73 1656.4 1469.33 1681.2 1459.33C1700.27 1451.47 1717.07 1452.13 1736 1461.47C1745.33 1466.13 1749.6 1469.33 1760.13 1479.87C1784 1503.87 1802.27 1538.27 1822 1596C1849.2 1676.13 1869.47 1773.87 1896.67 1955.33C1904 2004.4 1905.87 2014.4 1908 2016.13C1909.33 2017.33 1916.4 2020.27 1923.6 2022.67C1933.73 2026.13 1939.6 2027.2 1950 2027.73C1974.13 2028.8 1989.07 2023.33 2004.67 2007.6C2012.27 1999.73 2015.73 1994.8 2023.07 1980.53C2033.07 1961.2 2044.93 1945.73 2059.6 1932.8C2101.47 1896 2163.2 1866.53 2222.67 1854.8C2267.2 1846.13 2309.6 1846.8 2339.07 1856.67L2348.13 1859.73L2323.73 1834.8C2242.27 1751.47 2179.33 1668 2142.8 1594.93C2131.87 1573.07 2122 1549.6 2123.07 1548.4C2123.87 1547.73 2127.33 1549.07 2212.67 1582.67C2504.13 1697.73 2716.67 1775.33 2718.27 1767.47C2718.53 1766.67 2711.73 1740.13 2703.47 1708.67C2695.07 1677.07 2688.4 1651.07 2688.67 1650.93C2688.93 1650.67 2697.47 1653.73 2707.6 1657.73C2794.67 1692.53 2871.07 1714.8 2911.07 1716.93L2925.33 1717.73L2934.4 1709.2C2974.53 1670.67 3026.93 1644.4 3084.67 1633.87C3105.33 1630.13 3152.4 1630.53 3174 1634.53C3196.67 1638.93 3209.07 1639.73 3227.33 1638.4C3281.6 1634.4 3348.4 1608.8 3415.6 1566.27C3439.47 1551.07 3460.4 1535.87 3459.2 1534.67C3456.13 1531.6 3399.6 1512 3366 1502.27C3267.2 1473.6 3165.2 1456 3049.33 1447.2C3010.67 1444.4 2905.07 1443.2 2863.33 1445.2C2817.73 1447.47 2744.8 1453.87 2718.67 1458L2714 1458.8L2714.4 1469.07C2716.27 1508.93 2691.33 1535.2 2643.87 1543.47C2628.13 1546.13 2583.6 1545.47 2558.67 1542.13C2502.93 1534.53 2430.4 1515.07 2376 1492.93C2227.6 1432.67 2117.87 1336.67 2056 1213.33C2047.33 1196 2046.4 1194.8 2041.73 1193.2C2034.27 1190.8 2022 1189.87 2010.53 1190.93Z" fill="#F08951"/>
<path d="M3392.67 1424.13C3287.87 1431.33 3199.6 1437.33 3196.67 1437.47C3190.8 1437.73 3190.8 1437.73 3239.33 1446.13C3290.27 1455.07 3363.33 1471.87 3421.47 1488C3649.87 1551.73 3860.8 1648.27 4039.87 1771.07C4113.33 1821.47 4187.6 1882.13 4248.8 1941.73L4267.73 1960L4308.53 1959.73L4349.47 1959.33L4246.53 1854.67C4190 1797.07 4135.87 1742 4126.13 1732.27L4108.67 1714.67L4138 1724.8C4269.6 1770 4386.53 1797.07 4476 1802.67C4497.73 1804.13 4526.93 1803.47 4539.33 1801.47L4544.67 1800.67L4534 1796.27C4500.27 1782.27 4465.2 1759.73 4444.4 1739.07C4437.07 1731.73 4425.33 1716.67 4425.33 1714.67C4425.33 1714 4433.47 1710.4 4443.33 1706.53C4453.2 1702.67 4461.33 1699.2 4461.33 1698.67C4461.33 1698.27 4453.33 1693.07 4443.73 1687.07C4407.47 1664.93 4376 1647.87 4322.67 1621.47C4119.73 1520.67 3891.07 1449.87 3666 1418.13C3625.07 1412.27 3609.2 1410.67 3596 1410.8C3589.07 1410.93 3497.6 1416.8 3392.67 1424.13Z" fill="#F08951"/>
<path d="M3531.47 1562.67C3505.33 1596.93 3435.2 1637.6 3358 1663.33C3299.73 1682.8 3255.47 1690.27 3206.27 1688.93C3183.73 1688.27 3176.53 1687.6 3162.67 1684.53C3149.07 1681.6 3142.53 1680.93 3127.33 1680.93C3117.07 1680.8 3104.8 1681.6 3100 1682.53C3074.93 1687.47 3044.93 1700.93 3023.33 1717.07C3008.4 1728.13 2986.53 1749.2 2975.73 1762.93C2967.73 1773.07 2967.07 1773.47 2958 1776.27C2925.47 1786.4 2876.53 1771.2 2821.73 1733.87L2805.47 1722.8L2815.47 1734.4C2841.33 1764.4 2857.6 1797.2 2863.47 1831.2C2866.27 1846.93 2865.47 1877.87 2862 1891.07C2859.6 1900.13 2859.6 1900.27 2855.73 1899.47C2838.53 1896 2567.73 1780 2274 1650.27C2248.4 1638.93 2227.07 1629.87 2226.93 1630C2226.13 1630.67 2234.27 1642.4 2245.2 1656C2289.6 1712.13 2371.07 1774.27 2478 1834C2537.2 1867.07 2626.93 1909.47 2694.4 1936C2704.13 1939.87 2711.87 1943.33 2711.47 1943.6C2709.33 1945.73 2692.67 1948.13 2675.33 1948.8C2618.13 1951.2 2488.93 1935.87 2326.67 1907.33C2322.8 1906.67 2323.73 1907.47 2332 1912C2348 1920.8 2381.33 1936.13 2406.67 1946.4C2531.6 1996.8 2703.2 2032.4 2877.07 2044C2888.93 2044.8 2899.2 2045.2 2899.87 2044.8C2900.4 2044.4 2901.47 2040.93 2901.87 2037.07C2905.33 2011.6 2917.07 1956 2925.33 1926.67C2959.47 1805.87 3012.27 1754.13 3114.67 1741.2C3133.6 1738.8 3162.53 1739.07 3175.33 1741.87C3237.47 1755.33 3308.4 1807.07 3380.53 1891.47C3406.53 1921.73 3440 1965.73 3440 1969.47C3440 1972.13 3457.47 1983.47 3475.33 1992.4C3565.2 2037.2 3774.27 2088.53 4062 2136.53C4115.07 2145.33 4203.87 2159.2 4217.73 2160.8C4222 2161.33 4224.93 2162.13 4224.4 2162.8C4222.93 2164.13 4194.93 2171.2 4177.33 2174.53C4089.2 2191.2 3967.33 2194.4 3756.67 2185.33C3648 2180.67 3635.07 2180.67 3633.73 2184.93C3632.93 2187.2 3645.73 2191.47 3662.27 2194.53C3749.73 2211.07 3998.4 2222.93 4169.33 2218.8C4278.67 2216.13 4344 2211.33 4404.8 2201.47C4418 2199.33 4436.13 2196.67 4445.33 2195.47C4579.47 2178.8 4922.93 2165.73 5412.67 2158.67C5623.47 2155.6 5644.13 2155.07 5651.73 2152.93C5666.67 2148.67 5676.4 2140.13 5681.6 2126.67C5685.2 2117.33 5686.27 2094 5684.13 2073.07C5683.2 2064.8 5682 2052 5681.33 2044.67C5679.07 2019.2 5665.07 1989.47 5628.67 1933.2C5616.27 1913.87 5586.4 1871.87 5585.73 1872.53C5585.33 1872.8 5586 1877.87 5587.2 1883.6C5594.93 1922.93 5592.93 1951.33 5581.2 1964.67C5565.6 1982.4 5530.67 1976.13 5485.07 1947.47L5470.8 1938.67L5463.73 1941.47C5421.47 1958.13 5332.93 1974 5226.67 1983.87C5010.27 2004.13 4635.87 2007.87 4272.67 1993.47L4248.8 1992.53L4243.87 1997.47C4230.67 2010.67 4195.6 2015.87 4112.67 2016.93C4052 2017.73 4058.13 2018.4 4004.67 2005.33C3884.67 1975.87 3712 1916.53 3676.4 1892.67C3639.73 1867.87 3607.47 1815.2 3583.47 1741.33C3570.53 1701.73 3559.2 1650.53 3557.73 1625.07L3556.93 1612.13L3561.47 1609.47C3568.13 1605.33 3580.53 1601.73 3596.8 1599.33C3604.8 1598.13 3614 1596.67 3617.33 1596.13L3623.33 1595.2L3613.33 1588.67C3601.87 1581.2 3578.8 1570.93 3553.87 1562.27L3536.4 1556.27L3531.47 1562.67Z" fill="#F08951"/>
<path d="M1702.67 1610.13C1683.07 1613.87 1667.47 1622.93 1650 1640.53C1633.6 1656.93 1622.93 1672.53 1610 1699.33C1582 1756.53 1565.73 1826.53 1559.87 1914.67C1558 1943.6 1559.07 2011.2 1562 2040C1576.53 2186 1622.8 2296.67 1685.33 2334.8C1698.67 2342.93 1710.27 2346 1727.33 2345.87C1743.6 2345.87 1752.8 2343.2 1767.6 2334.53C1778.8 2328 1801.87 2304.4 1811.73 2289.47C1864.53 2209.33 1890.53 2065.2 1878 1921.33C1864.13 1762.4 1806.93 1637.47 1737.33 1613.87C1728 1610.67 1709.87 1608.8 1702.67 1610.13ZM1753.73 1718.53C1777.33 1726.67 1797.87 1749.47 1816.53 1788C1853.73 1865.2 1866 1984.27 1847.2 2088C1833.73 2162.4 1804.67 2217.47 1769.6 2234.8C1762.13 2238.53 1758.8 2239.33 1749.07 2239.73C1740.4 2240.13 1735.6 2239.73 1730.4 2238C1665.33 2216.93 1618.53 2076.13 1628 1930C1635.2 1819.2 1672 1735.2 1720.67 1718.4C1729.73 1715.2 1744.27 1715.33 1753.73 1718.53Z" fill="#F08951"/>
<path d="M3126.4 1800.67C3068.8 1809.73 3017.87 1855.33 2980.67 1931.33C2948.27 1997.47 2928.67 2078.67 2922.53 2172.4C2920.53 2203.33 2921.73 2282.4 2924.53 2312.67C2941.87 2492.8 3003.73 2648 3091.47 2731.87C3122 2761.07 3154 2779.47 3186.93 2786.93C3202.67 2790.4 3229.33 2790.8 3243.47 2787.6C3280.4 2779.33 3312.27 2758.8 3340.13 2725.47C3392.8 2662.8 3426.93 2565.87 3439.47 2444C3442.27 2415.87 3443.47 2338.27 3441.47 2306.67C3427.87 2089.47 3346.67 1900.93 3235.33 1827.6C3213.2 1813.07 3190.8 1804.27 3166.67 1800.53C3151.47 1798.27 3141.87 1798.27 3126.4 1800.67ZM3197.07 1944C3233.87 1954.27 3268.4 1983.47 3299.07 2030C3312 2049.6 3333.47 2092.93 3342.53 2117.73C3385.47 2234.13 3392.93 2377.2 3362 2489.87C3353.07 2522.67 3337.47 2558 3321.47 2582.27C3312 2596.53 3294.93 2614.93 3282.67 2624.27C3272.4 2632.13 3256 2640.27 3244 2643.47C3232.27 2646.67 3207.73 2646.67 3196.27 2643.6C3143.07 2629.33 3094.13 2576.67 3058.53 2495.33C3009.33 2382.8 2995.73 2229.07 3024.67 2111.33C3046.13 2024 3086.93 1964.4 3137.87 1945.73C3154.8 1939.6 3178.93 1938.93 3197.07 1944Z" fill="#F08951"/>
<path d="M2161.6 1934.67C2058.53 1953.2 2020.53 1992.8 2051.47 2049.2C2059.87 2064.53 2075.6 2083.07 2092.4 2097.6C2100.67 2104.67 2102 2105.33 2107.73 2105.33C2116.8 2105.33 2146.93 2109.87 2169.33 2114.53C2303.07 2142.53 2509.33 2236.53 2740 2374.67C2770.8 2393.2 2812 2418.67 2812 2419.2C2812 2419.47 2802.8 2415.87 2791.73 2411.07C2542.27 2304.8 2313.07 2241.87 2115.07 2225.33C2063.2 2221.07 1995.2 2221.07 1957.6 2225.47C1941.47 2227.33 1936.4 2229.07 1946.67 2229.2C1998.27 2229.87 2218 2284 2526.93 2372.13C2639.73 2404.27 2851.47 2466.53 2918.93 2487.47C2920.67 2488 2919.87 2485.33 2915.47 2475.73C2898.53 2439.73 2887.33 2386.4 2880.8 2310.67C2877.07 2267.07 2875.73 2224 2876.27 2154.93C2876.4 2117.47 2876.4 2086.67 2876 2086.67C2875.6 2086.67 2869.87 2087.87 2863.33 2089.2C2847.07 2092.8 2816.8 2096.8 2792.8 2098.8C2763.47 2101.07 2698.53 2099.6 2672 2096.13C2619.6 2088.93 2574.53 2076.53 2531.73 2057.33C2514.13 2049.33 2500.13 2041.6 2472.67 2024.67C2429.6 1997.87 2398.67 1982 2358.67 1966.27C2287.6 1938.13 2210.93 1925.87 2161.6 1934.67Z" fill="#F08951"/>
<path d="M3501.33 2200.27C3501.33 2204.13 3529.2 2229.2 3545.33 2239.87C3654.53 2312 3884 2362.93 4191.33 2383.33C4208.93 2384.53 4223.87 2385.6 4224.4 2385.73C4224.93 2385.87 4209.33 2388.93 4189.73 2392.53C4121.87 2404.67 4046 2420.4 4002.13 2431.47C3978.67 2437.33 3944.67 2447.2 3938.53 2450L3934 2452.13L3939.33 2451.33C3968.67 2447.47 4032.8 2443.07 4086.67 2441.2C4213.07 2437.07 4334 2449.6 4408.67 2474.93C4436.27 2484.27 4467.87 2502.67 4477.6 2515.07C4483.87 2523.2 4487.2 2530.8 4487.73 2538.93C4489.2 2558 4475.47 2573.73 4444.67 2588.67C4407.2 2606.93 4355.6 2617.73 4275.33 2624.27C4252.67 2626.13 4107.33 2626.8 4096 2625.07C4091.87 2624.4 4091.07 2624.53 4093.33 2625.33C4095.2 2626 4106.27 2627.73 4118 2629.2C4173.47 2636.27 4242.4 2641.33 4342 2645.6C4396 2648 4674 2648 4742.67 2645.6C4992.4 2637.2 5216.4 2623.2 5367.33 2606.53C5560 2585.33 5671.6 2557.47 5690 2526.13C5695.73 2516.4 5693.87 2508.4 5683.6 2498.93C5675.6 2491.73 5668.8 2488.8 5653.73 2486.13C5623.47 2480.8 5598.93 2468.27 5592 2454.53C5587.87 2446.67 5588.4 2436.67 5593.47 2427.2C5606.8 2401.73 5634.67 2375.2 5657.07 2366.67C5661.2 2365.07 5666 2363.2 5667.6 2362.67C5672.27 2360.8 5676.4 2351.2 5677.07 2340.53C5678.53 2316.8 5661.6 2280.53 5630.8 2241.6L5622.13 2230.53L5619.2 2245.33C5615.47 2263.87 5612.4 2272.53 5602.4 2292C5567.2 2360.8 5486 2414.53 5373.2 2444C5302.93 2462.27 5230.67 2471.2 5129.33 2474C5097.2 2474.93 4910.93 2472.8 4843.33 2470.67C4692.8 2466 4613.2 2456.93 4555.73 2437.87C4537.07 2431.73 4510.27 2418.4 4495.33 2407.73C4475.33 2393.6 4449.73 2367.07 4424 2333.73L4415.6 2322.67H4362.8C4266.4 2322.67 4145.87 2318.4 4054.67 2311.87C3800.67 2293.73 3619.47 2257.87 3513.07 2204.53C3506.4 2201.2 3501.33 2199.33 3501.33 2200.27Z" fill="#F08951"/>
<path d="M3519.2 2302.27C3524.67 2342 3528.93 2389.47 3530.8 2434.4C3534.27 2519.07 3524.8 2587.07 3505.33 2617.87C3503.07 2621.33 3501.33 2624.4 3501.33 2624.67C3501.33 2625.07 3617.73 2625.33 3759.87 2625.33H4018.4L4017.73 2620.13C4016.4 2610 4022.27 2599.73 4032.53 2594.4C4040.13 2590.4 4061.33 2589.73 4085.33 2592.67C4109.33 2595.6 4172.67 2596.8 4200.67 2594.8C4259.6 2590.53 4298.8 2580 4314.8 2564C4325.6 2553.2 4325.33 2543.6 4314.13 2532.67C4281.87 2501.33 4163.2 2476.27 4060.67 2479.07C4006.67 2480.67 3964.67 2487.33 3925.33 2500.53L3911.33 2505.2L3907.2 2500.93C3904.93 2498.53 3895.2 2488.53 3885.47 2478.4L3867.73 2460.27L3918.93 2428.4L3970 2396.67L3960.67 2395.73C3955.6 2395.2 3936.13 2393.87 3917.6 2392.67C3753.07 2382.53 3614.8 2354.4 3550.67 2318C3540.4 2312.13 3526.93 2302.67 3523.47 2298.8C3519.47 2294.4 3518.27 2295.33 3519.2 2302.27Z" fill="#F08951"/>
</g>
<defs>
<clipPath id="clip0_357_125">
<rect width="5693.33" height="2790.67" fill="white"/>
</clipPath>
</defs>
</svg>
