<svg width="52" height="52" viewBox="0 0 52 52" fill="none" xmlns="http://www.w3.org/2000/svg">
<path d="M26 1V4.5" stroke="#F08951" stroke-width="1.5" stroke-miterlimit="10" stroke-linecap="round" stroke-linejoin="round"/>
<path d="M40.7923 19.5002C39.959 14.1668 34.5423 10.0002 27.8757 9.3335C18.9173 8.50016 11.209 14.1668 11.209 21.1668C11.209 24.0002 12.459 26.5002 14.334 28.5002C18.084 32.1668 19.7507 36.8335 19.959 41.6668H32.0423C32.0423 36.8335 34.334 32.1668 38.084 28.1668C40.1673 25.8335 41.209 22.8335 40.7923 19.5002Z" stroke="#F08951" stroke-width="1.5" stroke-miterlimit="10" stroke-linecap="round" stroke-linejoin="round"/>
<path d="M35.3763 43.9998C35.3763 45.3332 34.1263 46.3332 32.4596 46.3332H19.3346C17.668 46.3332 16.418 45.3332 16.418 43.9998C16.418 42.6665 17.668 41.6665 19.3346 41.6665H32.4596C34.1263 41.6665 35.3763 42.6665 35.3763 43.9998Z" stroke="#F08951" stroke-width="1.5" stroke-miterlimit="10" stroke-linecap="round" stroke-linejoin="round"/>
<path d="M30.999 46.9999C30.999 49.1666 28.7074 50.9999 25.999 50.9999C23.0824 50.9999 20.999 49.1666 20.999 46.9999C20.999 46.8333 20.999 46.4999 20.999 46.3333H30.999C30.999 46.4999 30.999 46.6666 30.999 46.9999Z" stroke="#F08951" stroke-width="1.5" stroke-miterlimit="10" stroke-linecap="round" stroke-linejoin="round"/>
<path d="M43.709 6.8335L40.584 9.3335" stroke="#F08951" stroke-width="1.5" stroke-miterlimit="10" stroke-linecap="round" stroke-linejoin="round"/>
<path d="M51 21H46.625" stroke="#F08951" stroke-width="1.5" stroke-miterlimit="10" stroke-linecap="round" stroke-linejoin="round"/>
<path d="M5.375 21H1" stroke="#F08951" stroke-width="1.5" stroke-miterlimit="10" stroke-linecap="round" stroke-linejoin="round"/>
<path d="M11.416 9.3335L8.29102 6.8335" stroke="#F08951" stroke-width="1.5" stroke-miterlimit="10" stroke-linecap="round" stroke-linejoin="round"/>
</svg>
