<svg width="52" height="52" viewBox="0 0 52 52" fill="none" xmlns="http://www.w3.org/2000/svg">
<path d="M36.9589 51H4.08219C2.36986 51 1 49.6667 1 48V4C1 2.33333 2.36986 1 4.08219 1H36.9589C38.6712 1 40.0411 2.33333 40.0411 4V48C40.0411 49.6667 38.6712 51 36.9589 51Z" stroke="#F08951" stroke-width="1.5" stroke-miterlimit="10" stroke-linecap="round" stroke-linejoin="round"/>
<path d="M8.01953 7.8335H23.2593" stroke="#F08951" stroke-width="1.5" stroke-miterlimit="10" stroke-linecap="round" stroke-linejoin="round"/>
<path d="M8.01953 14.5002H28.3962" stroke="#F08951" stroke-width="1.5" stroke-miterlimit="10" stroke-linecap="round" stroke-linejoin="round"/>
<path d="M8.01953 21.3337H33.0195" stroke="#F08951" stroke-width="1.5" stroke-miterlimit="10" stroke-linecap="round" stroke-linejoin="round"/>
<path d="M8.01953 28.1663H33.0195" stroke="#F08951" stroke-width="1.5" stroke-miterlimit="10" stroke-linecap="round" stroke-linejoin="round"/>
<path d="M50.9993 6V43.3333L47.9172 49.6667L44.835 43.3333V6H50.9993Z" stroke="#F08951" stroke-width="1.5" stroke-miterlimit="10" stroke-linecap="round" stroke-linejoin="round"/>
<path d="M44.835 6V3C44.835 2 45.6911 1 46.8898 1H48.9445C50.1432 1 50.9993 2 50.9993 3V6H44.835Z" stroke="#F08951" stroke-width="1.5" stroke-miterlimit="10" stroke-linecap="round" stroke-linejoin="round"/>
<path d="M12.8141 44.1663C15.462 44.1663 17.6086 42.077 17.6086 39.4997C17.6086 36.9223 15.462 34.833 12.8141 34.833C10.1661 34.833 8.01953 36.9223 8.01953 39.4997C8.01953 42.077 10.1661 44.1663 12.8141 44.1663Z" stroke="#F08951" stroke-width="1.5" stroke-miterlimit="10" stroke-linecap="round" stroke-linejoin="round"/>
<path d="M28.398 44.1663C31.046 44.1663 33.1926 42.077 33.1926 39.4997C33.1926 36.9223 31.046 34.833 28.398 34.833C25.7501 34.833 23.6035 36.9223 23.6035 39.4997C23.6035 42.077 25.7501 44.1663 28.398 44.1663Z" stroke="#F08951" stroke-width="1.5" stroke-miterlimit="10" stroke-linecap="round" stroke-linejoin="round"/>
</svg>
