<svg width="52" height="52" viewBox="0 0 52 52" fill="none" xmlns="http://www.w3.org/2000/svg">
<path d="M36.3333 4.16667V23.1667H35.8333L28.3333 24.3333V36C28.3333 40.6667 31 46.6667 35 49.5C35.1667 49.6667 35.3333 49.6667 35.3333 49.8333C34.8333 50.5 34 50.8333 33 50.8333H4.16667C2.5 50.8333 1 49.3333 1 47.6667V4.33333C1 2.5 2.33333 1 4.16667 1H33.1667C34.8333 1 36.3333 2.5 36.3333 4.16667Z" stroke="#F08951" stroke-width="1.5" stroke-miterlimit="10" stroke-linecap="round" stroke-linejoin="round"/>
<path d="M5.66602 7.8335H15.666" stroke="#F08951" stroke-width="1.5" stroke-miterlimit="10" stroke-linecap="round" stroke-linejoin="round"/>
<path d="M5.66602 14.9998H23.4993" stroke="#F08951" stroke-width="1.5" stroke-miterlimit="10" stroke-linecap="round" stroke-linejoin="round"/>
<path d="M5.66602 22.1665H23.4993" stroke="#F08951" stroke-width="1.5" stroke-miterlimit="10" stroke-linecap="round" stroke-linejoin="round"/>
<path d="M23.666 29.3333H5.66602" stroke="#F08951" stroke-width="1.5" stroke-miterlimit="10" stroke-linecap="round" stroke-linejoin="round"/>
<path d="M23.666 36.5H5.66602" stroke="#F08951" stroke-width="1.5" stroke-miterlimit="10" stroke-linecap="round" stroke-linejoin="round"/>
<path d="M5.33301 43.6667H23.6663" stroke="#F08951" stroke-width="1.5" stroke-miterlimit="10" stroke-linecap="round" stroke-linejoin="round"/>
<path d="M51.0007 24.3334V36.0001C51.0007 42.3334 45.834 51.0001 39.6673 51.0001C38.0007 51.0001 36.5007 50.3334 35.0007 49.3334C31.0007 46.5001 28.334 40.6667 28.334 35.8334V24.3334L35.6673 23.1667L39.334 22.6667L51.0007 24.3334Z" stroke="#F08951" stroke-width="1.5" stroke-miterlimit="10" stroke-linecap="round" stroke-linejoin="round"/>
<path d="M34.833 38.1667L37.1663 40.5001L44.4997 33.1667" stroke="#F08951" stroke-width="1.5" stroke-miterlimit="10" stroke-linecap="round" stroke-linejoin="round"/>
</svg>
