<svg width="52" height="52" viewBox="0 0 52 52" fill="none" xmlns="http://www.w3.org/2000/svg">
<path d="M24.1281 33.2076H34.4443C35.9418 33.2076 37.2729 31.9481 37.2729 30.1488C37.2729 28.5294 36.1082 27.09 34.4443 27.09H14.1448C12.1481 27.09 10.1514 27.9896 8.65391 29.609L1.49917 37.5259C0.833611 38.2457 0.833611 39.5052 1.49917 40.2249L10.817 50.301C11.4825 51.2006 12.6473 51.2006 13.4792 50.4809L21.1331 42.2041C22.6306 40.5848 24.4609 39.865 26.4576 39.865H35.7754C37.9384 39.865 39.9351 38.9654 41.4326 37.1661L50.2512 26.9101C51.2496 25.6505 51.2496 23.8512 50.2512 22.5917C49.0865 21.3322 47.2562 21.3322 46.0915 22.7717L36.7737 32.308" stroke="#F08951" stroke-width="1.5" stroke-miterlimit="10" stroke-linecap="round" stroke-linejoin="round"/>
<path d="M5.16016 33.5674L17.1402 46.5224" stroke="#F08951" stroke-width="1.5" stroke-miterlimit="10" stroke-linecap="round" stroke-linejoin="round"/>
<path d="M30.1181 22.5916C35.6318 22.5916 40.1015 17.7582 40.1015 11.7958C40.1015 5.83345 35.6318 1 30.1181 1C24.6045 1 20.1348 5.83345 20.1348 11.7958C20.1348 17.7582 24.6045 22.5916 30.1181 22.5916Z" stroke="#F08951" stroke-width="1.5" stroke-miterlimit="10" stroke-linecap="round" stroke-linejoin="round"/>
<path d="M32.7805 7.83789H30.6175H29.2863C28.288 7.83789 27.4561 8.73754 27.4561 9.81712C27.4561 10.8967 28.288 11.7964 29.2863 11.7964H30.9502" stroke="#F08951" stroke-width="1.5" stroke-miterlimit="10" stroke-linecap="round" stroke-linejoin="round"/>
<path d="M30.9502 11.7969C31.9486 11.7969 32.7805 12.6965 32.7805 13.7761C32.7805 14.8557 31.9486 15.7553 30.9502 15.7553H27.4561" stroke="#F08951" stroke-width="1.5" stroke-miterlimit="10" stroke-linecap="round" stroke-linejoin="round"/>
<path d="M30.6182 5.67822V7.83739" stroke="#F08951" stroke-width="1.5" stroke-miterlimit="10" stroke-linecap="round" stroke-linejoin="round"/>
<path d="M30.6182 15.7544V17.9136" stroke="#F08951" stroke-width="1.5" stroke-miterlimit="10" stroke-linecap="round" stroke-linejoin="round"/>
</svg>
