<svg width="12" height="17" viewBox="0 0 12 17" fill="none" xmlns="http://www.w3.org/2000/svg">
<path d="M10.1052 13.394H1.89471V14.0031H10.1052V13.394Z" fill="#F08951"/>
<path d="M6.31577 4.26172H1.89471V4.87077H6.31577V4.26172Z" fill="#F08951"/>
<path d="M10.1052 11.5674H1.89471V12.1764H10.1052V11.5674Z" fill="#F08951"/>
<path d="M6.31577 2.43506H1.89471V3.04411H6.31577V2.43506Z" fill="#F08951"/>
<path d="M8.21053 0H7.89475H1.26316C0.568405 0 0 0.547928 0 1.21765V15.2207C0 15.8903 0.568405 16.4383 1.26316 16.4383H10.7368C11.4316 16.4383 12 15.8903 12 15.2207V4.56621V4.26182L8.21053 0ZM8.21053 0.913255L11.179 4.26182H8.84211C8.52633 4.26182 8.21053 3.95742 8.21053 3.65299V0.913255ZM11.3684 15.2207C11.3684 15.5251 11.1158 15.8295 10.7368 15.8295H1.26316C0.947385 15.8295 0.631579 15.5859 0.631579 15.2207V1.21765C0.631579 0.913255 0.884211 0.608826 1.26316 0.608826H7.57895V3.65296C7.57895 4.32268 8.14739 4.87061 8.84211 4.87061H11.3684V15.2207Z" fill="#F08951"/>
<path d="M10.1052 9.74121H1.89471V10.3503H10.1052V9.74121Z" fill="#F08951"/>
<path d="M10.1052 6.08838H1.89471V6.69743H10.1052V6.08838Z" fill="#F08951"/>
<path d="M10.1052 7.91455H1.89471V8.5236H10.1052V7.91455Z" fill="#F08951"/>
</svg>
