<svg width="81" height="64" viewBox="0 0 81 64" fill="none" xmlns="http://www.w3.org/2000/svg">
<path d="M29.6056 0.0969049C25.7684 0.374897 22.6402 1.03096 20.7466 1.93166C17.4099 3.53289 14.165 7.45815 11.6875 12.8734C11.3621 13.574 11.0535 14.1411 10.9868 14.13C10.9284 14.13 10.578 14.0077 10.211 13.8853C9.84393 13.7519 9.19327 13.5851 8.7595 13.5073L7.96703 13.3849L7.06612 10.9053L6.17355 8.42556H5.79817C5.25596 8.42556 1.3103 8.21429 0.601246 8.14757C0.0590308 8.10309 -0.00770341 8.11421 0.000638366 8.29213C0.000638366 8.3922 0.259233 9.35962 0.559537 10.4271L1.11844 12.3731L3.57926 12.4064L6.03174 12.4287L6.34873 12.8401C6.70743 13.3071 6.74913 13.5406 6.47386 13.5406C6.1235 13.5406 5.13083 13.9409 4.57193 14.3079C3.8462 14.786 3.1288 15.5755 2.74508 16.3428C2.41975 16.9989 1.97764 18.6779 1.83583 19.8233C0.99331 26.6063 2.38639 38.1485 4.63032 42.9745C5.8232 45.5542 8.11719 47.1666 11.1619 47.5669C11.6458 47.6336 12.188 47.7115 12.3631 47.7337C12.5383 47.7671 12.6718 47.7448 12.6718 47.6781C12.6718 47.6225 12.5967 47.5669 12.505 47.5669C12.188 47.5669 10.7031 46.8664 9.76052 46.277C8.21729 45.2985 6.69074 43.7973 5.97335 42.5408C3.44579 38.0929 1.92759 22.7811 3.54589 17.9774C3.82117 17.1768 4.52188 16.2538 5.19756 15.8313C5.94832 15.3531 6.54059 15.1975 7.58331 15.1863C8.60935 15.1863 9.29338 15.3087 10.1693 15.6645C10.7115 15.8758 11.212 15.9314 21.1804 16.9321C22.7153 17.0878 24.6673 17.288 25.5181 17.3769C26.369 17.4659 28.3376 17.666 29.8976 17.8217C31.4575 17.9774 33.4428 18.1775 34.302 18.2776C35.1696 18.3777 35.8953 18.4222 35.9203 18.3999C35.9704 18.3221 35.7451 18.2776 32.6921 17.7661C24.3503 16.3539 12.6468 14.319 12.6134 14.2745C12.555 14.1967 13.7479 11.7948 14.4069 10.6495C15.0659 9.51529 16.6758 7.30247 17.4266 6.47961C19.6705 4.05552 21.781 2.96579 25.5265 2.32085C28.5295 1.79822 28.8632 1.7871 45.5801 1.82046C51.5278 1.83158 54.8311 2.27637 57.4588 3.4217C60.4785 4.73382 63.298 7.89182 65.617 12.5399C66.276 13.8631 66.4262 14.2078 66.3678 14.2856C66.3428 14.3079 66.0508 14.3857 65.7088 14.4413C65.0915 14.5525 63.6234 14.8083 61.3043 15.1975C60.5953 15.3198 59.4191 15.5199 58.7017 15.6534C57.976 15.7757 56.7998 15.9758 56.0907 16.0982C55.3817 16.2205 54.2055 16.4206 53.4881 16.5429C52.7624 16.6764 51.436 16.8988 50.5435 17.0544C49.6509 17.2101 48.3329 17.4325 47.6238 17.5548C46.9148 17.6772 45.7303 17.8773 44.9962 17.9885C43.3612 18.2554 43.0108 18.3332 43.0609 18.3888C43.0943 18.4333 47.6405 17.9885 53.5048 17.3769C55.9322 17.1212 58.1678 16.8988 60.0948 16.7097C61.0624 16.6208 62.5389 16.4651 63.3898 16.3761C64.2407 16.2872 65.7005 16.1315 66.6431 16.0426C67.8693 15.9091 68.5367 15.7868 69.0288 15.5978C70.18 15.153 71.9484 15.0529 72.9411 15.3865C73.8087 15.6645 74.8514 16.5874 75.2434 17.4103C75.5354 18.0219 75.8524 19.3673 75.9859 20.5349C76.3112 23.5039 76.1027 28.808 75.477 33.2781C74.8764 37.5481 73.8253 41.3955 72.8577 42.8633C72.0736 44.042 70.3719 45.6543 69.0622 46.4327C68.3865 46.833 67.1269 47.4112 66.7098 47.5113C66.5346 47.5558 66.3928 47.6336 66.3928 47.6781C66.3928 47.7337 66.5346 47.7448 66.7098 47.7226C66.8767 47.7003 67.4105 47.6225 67.8943 47.5558C70.9224 47.1332 73.1497 45.5876 74.3676 43.0523C75.5855 40.517 76.6866 35.313 77.2121 29.6642C77.429 27.3513 77.429 21.7803 77.2121 20.079C77.0202 18.589 76.6532 17.11 76.2862 16.365C75.7773 15.3531 74.5761 14.2078 73.6502 13.8631C73.4416 13.7853 73.2414 13.6852 73.1997 13.6407C73.1663 13.5962 73.3082 13.3071 73.525 12.9958L73.9254 12.4287H76.3696C78.0379 12.4287 78.8304 12.3953 78.8721 12.3063C79.0056 12.0061 80.0483 8.19205 79.9983 8.15869C79.9732 8.13645 78.8054 8.19205 77.404 8.26989C76.0025 8.34772 74.6262 8.41444 74.3425 8.42556H73.8337L72.9912 10.7273C72.524 12.0061 72.1153 13.1181 72.0819 13.207C72.0235 13.3293 71.7733 13.3849 71.0142 13.4405C70.0966 13.5073 68.7369 13.8186 68.1947 14.0966C68.0695 14.1522 67.9527 14.2078 67.9444 14.2078C67.9277 14.2078 67.7192 13.763 67.4856 13.2182C66.1926 10.2381 64.2156 7.0912 62.4305 5.16749C59.661 2.19853 57.3086 1.07544 52.4621 0.419376C49.7009 0.0413064 47.1233 -0.0587709 43.4529 0.0301867C39.574 0.141384 40.1079 0.141384 34.9443 0.0524261C32.7671 0.019067 30.3647 0.0413064 29.6056 0.0969049Z" fill="white"/>
<path d="M6.38202 20.1899C6.31529 20.3567 6.12343 21.0127 5.95659 21.6577C5.68131 22.6807 5.6396 22.9809 5.60624 24.104C5.57287 25.216 5.58955 25.4606 5.73971 26.0055C6.05669 27.1174 6.84082 27.8847 8.6343 28.8076C10.5446 29.7973 14.0731 31.0872 17.7018 32.1213C18.9114 32.466 19.1783 32.4994 19.1783 32.3548C19.1783 32.1213 18.1606 30.142 17.5934 29.2747C15.7582 26.4614 13.2056 24.3153 9.91059 22.8252C9.57692 22.6696 9.2933 22.5695 9.27662 22.5806C9.26828 22.6028 9.89391 23.6592 10.6697 24.9157C11.4538 26.1834 12.0878 27.2731 12.0878 27.3287C12.0878 27.6401 10.7031 27.1842 9.77712 26.5615C8.98466 26.0388 7.8752 24.9491 7.45811 24.293C6.76574 23.2144 6.4571 22.0246 6.51549 20.6903C6.54052 20.2455 6.54886 19.8785 6.53217 19.8785C6.51549 19.8785 6.44876 20.012 6.38202 20.1899Z" fill="white"/>
<path d="M72.4905 20.4575C72.6407 21.7029 72.2402 23.293 71.5062 24.3383C70.9473 25.15 69.9129 26.1508 69.1121 26.6512C68.2612 27.196 66.8932 27.6297 66.8932 27.3517C66.8932 27.3072 67.5355 26.2286 68.3196 24.961C69.1037 23.6822 69.7294 22.6258 69.7127 22.6036C69.6126 22.4702 67.4437 23.6266 66.0173 24.5718C64.0653 25.8617 62.0549 28.0523 60.837 30.2206C60.3032 31.1658 59.7693 32.3667 59.8444 32.4668C59.8694 32.489 60.103 32.4557 60.3616 32.3889C64.6826 31.1769 67.8108 30.076 70.0964 28.9529C71.1391 28.4414 72.1652 27.7631 72.6073 27.285C73.7167 26.0729 73.7418 23.8045 72.6824 20.3463C72.4905 19.7125 72.4071 19.757 72.4905 20.4575Z" fill="white"/>
<path d="M22.6235 28.2076C22.5818 28.2409 22.2565 28.986 21.9062 29.8644L21.2555 31.4434L21.4307 32.5554C22.2398 37.6816 24.1167 41.718 26.3773 43.2525C27.1198 43.7418 28.2125 44.1866 29.4054 44.4646C30.9236 44.8204 33.91 44.8204 36.0204 44.4646C36.8129 44.3311 37.547 44.1755 37.6471 44.131C37.8556 44.0198 37.6054 43.9642 35.6534 43.7307C34.9193 43.6417 33.3094 43.4416 32.0664 43.2859C30.8319 43.1302 29.5139 42.9745 29.1468 42.9301L28.4795 42.8633L28.0374 42.2406C27.7954 41.8959 27.4451 41.3844 27.2532 41.0842L26.9196 40.5616L31.5409 40.5504C36.6628 40.5282 36.6044 40.5616 32.7338 39.95C31.7244 39.7943 30.1478 39.5385 29.2302 39.394C28.3126 39.2494 27.3533 39.0938 27.0947 39.0604L26.6193 38.9826L25.9019 37.448C25.5098 36.6029 25.1845 35.8468 25.1845 35.7801C25.1845 35.6689 25.3596 35.6578 25.9185 35.7134C26.319 35.7467 27.8872 35.8579 29.3971 35.9469C30.9153 36.047 33.1509 36.1915 34.3771 36.2805C37.4302 36.5029 37.4385 36.5029 35.2363 36.0136C29.1802 34.6681 24.8258 33.6785 24.7924 33.634C24.7257 33.5339 24.0166 30.9653 24.05 30.9208C24.0667 30.8985 24.8258 30.9764 25.735 31.0987C26.6526 31.221 28.1625 31.4323 29.1051 31.5546C33.9016 32.1773 35.2613 32.3552 36.4292 32.5109C37.1382 32.5999 37.7305 32.6555 37.7472 32.6332C37.7972 32.5776 37.6638 32.5331 35.2363 31.8326C34.277 31.5435 32.5503 31.0431 31.3991 30.7095C30.2563 30.3759 28.3794 29.8199 27.2282 29.4863C25.0844 28.8636 24.5505 28.6968 23.3743 28.3521C22.9989 28.2298 22.6569 28.1742 22.6235 28.2076Z" fill="white"/>
<path d="M54.756 28.6194C53.8884 28.8863 53.0042 29.1531 52.7957 29.2087C52.3869 29.3311 49.1336 30.2873 44.6207 31.6106C43.0358 32.0665 41.6511 32.4779 41.5426 32.5113C41.4342 32.5446 41.3674 32.5891 41.3925 32.6225C41.4091 32.6558 42.5687 32.5224 43.9617 32.3445C45.3548 32.1555 47.6655 31.8552 49.0836 31.6662C50.51 31.4772 52.4203 31.2325 53.3295 31.1102C54.2388 30.9879 55.0062 30.9101 55.0313 30.9434C55.0897 31.0101 54.3723 33.5454 54.2722 33.6344C54.2305 33.6677 53.1043 33.9346 51.7696 34.246C44.4539 35.8806 42.4268 36.3365 42.3434 36.3365C42.3017 36.3365 42.2767 36.3587 42.3017 36.3921C42.3267 36.4254 43.3778 36.3809 44.6291 36.292C45.8887 36.1919 47.7823 36.0696 48.8333 36.0029C49.8927 35.9473 51.461 35.8361 52.3202 35.7694C53.1877 35.7026 53.9135 35.6693 53.9385 35.7026C53.9885 35.7805 52.4787 39.0052 52.3953 39.0052C52.3619 39.0052 51.2274 39.1831 49.876 39.3944C48.5247 39.6168 46.6144 39.917 45.6384 40.0616C42.6688 40.5286 42.6938 40.5397 47.5654 40.5508C50.0763 40.5508 52.1283 40.5953 52.1283 40.6287C52.1283 40.6731 51.7947 41.1847 51.3859 41.774L50.6352 42.8526L49.484 42.986C48.85 43.0639 47.5654 43.2196 46.6228 43.3419C45.6801 43.4531 44.1119 43.6532 43.1276 43.7755C42.1432 43.8979 41.3257 44.0202 41.309 44.0535C41.259 44.1203 41.6093 44.2092 42.7438 44.3982C47.6988 45.2433 51.6362 44.5428 53.6716 42.4523C55.4066 40.6731 56.7914 37.3595 57.5588 33.1673C57.6923 32.4334 57.8007 31.7329 57.8007 31.5884C57.8007 31.3215 56.5411 28.1857 56.416 28.1524C56.3743 28.1412 55.6319 28.3525 54.756 28.6194Z" fill="white"/>
<path d="M7.83366 31.8327C7.76693 31.8549 7.45828 31.9105 7.14964 31.9439C6.83265 31.9883 6.5824 32.0551 6.5824 32.0995C6.5824 32.144 6.89104 32.233 7.27476 32.3108C8.80965 32.611 11.0286 33.4005 12.5301 34.19C15.091 35.5244 16.5091 37.0367 17.5685 39.5164C17.8521 40.1836 18.4277 41.5735 18.8448 42.6188C19.2702 43.6529 19.8208 44.9317 20.071 45.4543C20.9136 47.1778 22.1398 48.5233 23.608 49.3128C25.4765 50.3136 28.5963 50.2246 33.0675 49.0237C34.4773 48.6456 38.2394 47.4002 38.0976 47.3669C38.0225 47.3446 37.2968 47.4336 36.471 47.5559C32.4586 48.1675 28.6714 48.4455 26.7194 48.2565C25.9937 48.1897 25.1345 48.0563 24.8092 47.9562C23.4828 47.5782 22.0981 46.266 21.2055 44.5425C20.972 44.0977 20.3964 42.7744 19.9292 41.618C18.4194 37.8929 18.1191 37.2702 17.3433 36.2249C15.8668 34.2345 13.7396 32.789 11.2872 32.1107C10.5281 31.8994 8.17568 31.7103 7.83366 31.8327Z" fill="white"/>
<path d="M68.9788 31.8443C66.0091 32.3113 63.4231 33.8792 61.6213 36.2699C61.0457 37.0372 60.4952 38.1714 59.5943 40.3953C58.0594 44.2316 57.4338 45.4659 56.5495 46.4222C55.4484 47.6009 54.4974 48.0345 52.5038 48.2458C50.7019 48.446 46.1974 48.1346 42.5353 47.5675C41.7762 47.4452 41.0505 47.3451 40.9087 47.3562C40.3081 47.3785 44.6542 48.6684 46.8314 49.1132C49.3172 49.6247 50.2181 49.7247 52.2535 49.7247C54.5475 49.7359 54.9396 49.6469 56.074 48.8908C56.9249 48.3237 57.3754 47.89 58.0177 46.9893C58.6934 46.0552 59.1939 45.0322 60.2199 42.5081C61.7214 38.8052 62.0468 38.1158 62.6724 37.2707C64.249 35.1691 66.9184 33.6012 70.7222 32.567C71.3979 32.378 72.0569 32.2223 72.182 32.2223C72.4907 32.2223 72.4489 32.0333 72.132 31.9555C71.7649 31.8776 69.3458 31.7887 68.9788 31.8443Z" fill="white"/>
<path d="M7.54149 34.446C7.89185 36.0473 8.97628 39.0496 9.81046 40.7175C11.1034 43.3084 12.3881 44.387 14.8322 44.943C15.6747 45.1321 17.3097 45.1765 17.5016 45.0209C17.635 44.9097 17.5683 44.8763 16.8009 44.6761C16.1919 44.5093 14.5402 43.7532 13.9647 43.364C12.5382 42.4077 11.4288 40.8065 10.8615 38.8717C10.5112 37.6596 10.5112 37.6596 10.5112 38.6493C10.5028 39.183 10.4695 39.55 10.4277 39.5055C10.386 39.4721 9.73538 38.3046 8.99296 36.9146C7.4831 34.1013 7.45807 34.0457 7.54149 34.446Z" fill="white"/>
<path d="M72.1402 34.5798C72.0317 34.7799 71.3811 35.992 70.6971 37.2819L69.4375 39.6059L69.3957 38.6718C69.3457 37.6711 69.3374 37.6711 69.0704 38.7163C68.7451 39.9728 67.9443 41.4629 67.1101 42.3636C66.2509 43.2754 64.5325 44.2428 62.8474 44.7321C62.0049 44.9878 62.1718 45.099 63.3897 45.1101C64.8245 45.1213 66.3176 44.6987 67.5522 43.9314C68.9787 43.0308 70.5135 40.3509 71.673 36.7148C72.0234 35.6473 72.4071 34.224 72.3571 34.224C72.3404 34.224 72.2403 34.3907 72.1402 34.5798Z" fill="white"/>
<path d="M2.76528 63.8867V55.0881H1V63.8867H2.76528Z" fill="white"/>
<path d="M13.3396 55.0755V60.9916L8.95584 55.0755H7.11701V63.8867H8.88229V57.9706L13.2661 63.8867H15.1049V55.0755H13.3396Z" fill="white"/>
<path d="M24.8971 56.6867V55.0881H19.4688V63.8867H21.2341V60.1483H24.4116V58.5497H21.2341V56.6867H24.8971Z" fill="white"/>
<path d="M29.3129 64C29.7984 64 30.1956 63.6601 30.1956 63.2448C30.1956 62.8168 29.7984 62.4895 29.3129 62.4895C28.8128 62.4895 28.4303 62.8168 28.4303 63.2448C28.4303 63.6601 28.8128 64 29.3129 64Z" fill="white"/>
<path d="M40.2403 55.0755H38.2544L34.5473 63.8867H36.4744L37.2835 61.9608H41.1818L41.9909 63.8867H43.9474L40.2403 55.0755ZM39.24 57.3287L40.5051 60.3497H37.9749L39.24 57.3287Z" fill="white"/>
<path d="M54.1984 55.0755L51.4622 61.5832L48.7113 55.0755H46.7842L50.4913 63.8867H52.4478L56.1549 55.0755H54.1984Z" fill="white"/>
<path d="M67.4419 55.0881H59.9836V56.6867H62.8227V63.8867H64.6027V56.6867H67.4419V55.0881Z" fill="white"/>
<path d="M79.4848 56.3469C77.7195 54.8112 74.9392 54.5595 72.8503 55.7427C70.7613 56.9259 69.9375 59.2042 70.879 61.193C71.8205 63.1818 74.2772 64.3147 76.7339 63.9119C79.2053 63.5091 80.9853 61.6713 81 59.5189C81 58.3357 80.4557 57.1902 79.4848 56.3469ZM78.1902 61.5958C77.0281 62.5776 75.204 62.7161 73.8653 61.9231C72.5119 61.1301 71.997 59.6322 72.6443 58.3483C73.2769 57.0643 74.8951 56.3343 76.4985 56.6238C78.0873 56.9133 79.2347 58.1217 79.22 59.5189C79.22 60.2993 78.8375 61.042 78.1902 61.5958Z" fill="white"/>
</svg>
