<svg width="20" height="15" viewBox="0 0 20 15" fill="none" xmlns="http://www.w3.org/2000/svg">
<path d="M1.84675 13.7694C2.04422 13.8719 2.26584 13.9293 2.5 13.9293H17.5C17.7342 13.9293 17.9558 13.8719 18.1533 13.7694L12.2446 7.81522L10.3179 9.51414C10.1332 9.67694 9.86678 9.67694 9.68215 9.51414L7.75538 7.81522L1.84675 13.7694ZM1.1431 13.0087C1.14773 13.0037 1.15247 12.9987 1.15732 12.9938L6.9772 7.12907L1.18215 2.01929C1.16951 2.00815 1.15752 1.99648 1.14617 1.98434C1.05247 2.19399 1 2.4288 1 2.67673V12.3233C1 12.5685 1.05132 12.8008 1.1431 13.0087ZM18.8569 13.0087C18.9487 12.8008 19 12.5685 19 12.3233V2.67673C19 2.4288 18.9475 2.194 18.8538 1.98434C18.8425 1.99648 18.8305 2.00815 18.8179 2.01929L13.0228 7.12907L18.8427 12.9938C18.8475 12.9987 18.8523 13.0037 18.8569 13.0087ZM18.1444 1.22605C17.9492 1.12644 17.7307 1.07069 17.5 1.07069H2.5C2.26933 1.07069 2.05081 1.12644 1.85557 1.22605L10 8.40738L18.1444 1.22605ZM2.5 0H17.5C18.8807 0 20 1.19841 20 2.67673V12.3233C20 13.8016 18.8807 15 17.5 15H2.5C1.11929 15 0 13.8016 0 12.3233V2.67673C0 1.19841 1.11929 0 2.5 0Z" fill="#F08951"/>
</svg>
