<svg width="20" height="20" viewBox="0 0 20 20" fill="none" xmlns="http://www.w3.org/2000/svg">
<rect width="20" height="20" rx="10" fill="black"/>
<circle cx="10" cy="10" r="8" fill="url(#paint0_radial_224_1314)"/>
<path d="M8.7007 5.01938C8.22105 5.07498 7.83003 5.20619 7.59333 5.38633C7.17624 5.70658 6.77062 6.49163 6.46093 7.57469C6.42027 7.7148 6.38169 7.82822 6.37334 7.82599C6.36605 7.82599 6.32225 7.80153 6.27637 7.77707C6.23049 7.75038 6.14916 7.71702 6.09494 7.70145L5.99588 7.67699L5.88327 7.18105L5.77169 6.68511H5.72477C5.65699 6.68511 5.16379 6.64286 5.07516 6.62951C5.00738 6.62062 4.99904 6.62284 5.00008 6.65842C5.00008 6.67844 5.0324 6.87192 5.06994 7.08542L5.1398 7.47461L5.44741 7.48128L5.75397 7.48573L5.79359 7.56802C5.83843 7.66142 5.84364 7.70812 5.80923 7.70812C5.76544 7.70812 5.64135 7.78819 5.57149 7.86158C5.48077 7.95721 5.3911 8.11511 5.34314 8.26856C5.30247 8.39977 5.2472 8.73558 5.22948 8.96465C5.12416 10.3213 5.2983 12.6297 5.57879 13.5949C5.7279 14.1108 6.01465 14.4333 6.39524 14.5134C6.45572 14.5267 6.5235 14.5423 6.54539 14.5467C6.56729 14.5534 6.58397 14.549 6.58397 14.5356C6.58397 14.5245 6.57459 14.5134 6.56312 14.5134C6.5235 14.5134 6.33789 14.3733 6.22006 14.2554C6.02716 14.0597 5.83634 13.7595 5.74667 13.5082C5.43072 12.6186 5.24095 9.55622 5.44324 8.59548C5.47765 8.43535 5.56524 8.25077 5.6497 8.16626C5.74354 8.07063 5.81757 8.03949 5.94791 8.03727C6.07617 8.03727 6.16167 8.06173 6.27116 8.1329C6.33893 8.17515 6.4015 8.18627 7.64755 8.38643C7.83941 8.41756 8.08341 8.45759 8.18977 8.47538C8.29612 8.49318 8.54221 8.53321 8.7372 8.56434C8.93218 8.59548 9.18035 8.63551 9.28775 8.65552C9.3962 8.67554 9.48691 8.68443 9.49004 8.67999C9.4963 8.66442 9.46814 8.65552 9.08651 8.55322C8.04378 8.27078 6.58085 7.8638 6.57668 7.8549C6.56938 7.83934 6.71849 7.35897 6.80086 7.1299C6.88324 6.90306 7.08448 6.46049 7.17833 6.29592C7.45882 5.8111 7.72263 5.59316 8.19081 5.46417C8.56619 5.35964 8.6079 5.35742 10.6975 5.36409C11.441 5.36632 11.8539 5.45527 12.1823 5.68434C12.5598 5.94676 12.9123 6.57836 13.2021 7.50797C13.2845 7.77262 13.3033 7.84156 13.296 7.85713C13.2928 7.86158 13.2564 7.87714 13.2136 7.88826C13.1364 7.9105 12.9529 7.96165 12.663 8.03949C12.5744 8.06395 12.4274 8.10399 12.3377 8.13067C12.247 8.15514 12.1 8.19517 12.0113 8.21963C11.9227 8.24409 11.7757 8.28412 11.686 8.30859C11.5953 8.33528 11.4295 8.37975 11.3179 8.41089C11.2064 8.44202 11.0416 8.4865 10.953 8.51097C10.8643 8.53543 10.7163 8.57546 10.6245 8.5977C10.4201 8.65107 10.3764 8.66664 10.3826 8.67776C10.3868 8.68666 10.9551 8.5977 11.6881 8.47538C11.9915 8.42423 12.271 8.37975 12.5118 8.34195C12.6328 8.32416 12.8174 8.29302 12.9237 8.27523C13.0301 8.25744 13.2126 8.2263 13.3304 8.20851C13.4837 8.18182 13.5671 8.15736 13.6286 8.11955C13.7725 8.0306 13.9936 8.01058 14.1176 8.0773C14.2261 8.1329 14.3564 8.31748 14.4054 8.48206C14.4419 8.60437 14.4816 8.87347 14.4982 9.10698C14.5389 9.70077 14.5128 10.7616 14.4346 11.6556C14.3596 12.5096 14.2282 13.2791 14.1072 13.5727C14.0092 13.8084 13.7965 14.1309 13.6328 14.2865C13.5483 14.3666 13.3909 14.4822 13.3387 14.5023C13.3168 14.5112 13.2991 14.5267 13.2991 14.5356C13.2991 14.5467 13.3168 14.549 13.3387 14.5445C13.3596 14.5401 13.4263 14.5245 13.4868 14.5112C13.8653 14.4266 14.1437 14.1175 14.2959 13.6105C14.4482 13.1034 14.5858 12.0626 14.6515 10.9328C14.6786 10.4703 14.6786 9.35606 14.6515 9.0158C14.6275 8.71779 14.5817 8.42201 14.5358 8.27301C14.4722 8.07063 14.322 7.84156 14.2063 7.77262C14.1802 7.75705 14.1552 7.73704 14.15 7.72814C14.1458 7.71924 14.1635 7.66142 14.1906 7.59915L14.2407 7.48573H14.5462C14.7547 7.48573 14.8538 7.47906 14.859 7.46127C14.8757 7.40122 15.006 6.63841 14.9998 6.63174C14.9967 6.62729 14.8507 6.63841 14.6755 6.65398C14.5003 6.66954 14.3283 6.68289 14.2928 6.68511H14.2292L14.1239 7.14547C14.0655 7.40122 14.0144 7.62361 14.0102 7.64141C14.0029 7.66587 13.9717 7.67699 13.8768 7.68811C13.7621 7.70145 13.5921 7.76372 13.5243 7.81932C13.5087 7.83044 13.4941 7.84156 13.493 7.84156C13.491 7.84156 13.4649 7.7526 13.4357 7.64363C13.2741 7.04761 13.027 6.41824 12.8038 6.0335C12.4576 5.43971 12.1636 5.21509 11.5578 5.08387C11.2126 5.00826 10.8904 4.98825 10.4316 5.00604C9.94675 5.02828 10.0135 5.02828 9.36804 5.01048C9.09589 5.00381 8.79559 5.00826 8.7007 5.01938Z" fill="black"/>
<path d="M5.79775 9.03817C5.78941 9.07153 5.76543 9.20274 5.74457 9.33173C5.71016 9.53633 5.70495 9.59638 5.70078 9.821C5.69661 10.0434 5.69869 10.0923 5.71746 10.2013C5.75709 10.4237 5.8551 10.5771 6.07929 10.7617C6.31807 10.9597 6.75914 11.2176 7.21273 11.4245C7.36392 11.4934 7.39729 11.5001 7.39729 11.4712C7.39729 11.4245 7.27008 11.0286 7.19917 10.8551C6.96977 10.2925 6.6507 9.86325 6.23882 9.56524C6.19712 9.53411 6.16166 9.51409 6.15958 9.51632C6.15853 9.52076 6.23674 9.73204 6.33371 9.98334C6.43173 10.2369 6.51097 10.4548 6.51097 10.4659C6.51097 10.5282 6.33788 10.437 6.22214 10.3125C6.12308 10.208 5.9844 9.99002 5.93226 9.8588C5.84572 9.64308 5.80714 9.40512 5.81444 9.13825C5.81756 9.04929 5.81861 8.9759 5.81652 8.9759C5.81444 8.9759 5.80609 9.00259 5.79775 9.03817Z" fill="black"/>
<path d="M14.0614 9.0914C14.0802 9.34048 14.0301 9.65851 13.9383 9.86756C13.8685 10.0299 13.7392 10.2301 13.6391 10.3301C13.5327 10.4391 13.3617 10.5258 13.3617 10.4702C13.3617 10.4613 13.442 10.2456 13.54 9.9921C13.638 9.73634 13.7162 9.52507 13.7142 9.52062C13.7017 9.49394 13.4305 9.72522 13.2522 9.91426C13.0082 10.1722 12.7569 10.6104 12.6047 11.044C12.538 11.2331 12.4712 11.4732 12.4806 11.4933C12.4838 11.4977 12.5129 11.491 12.5453 11.4777C13.0854 11.2353 13.4764 11.0151 13.7621 10.7905C13.8925 10.6882 14.0207 10.5525 14.076 10.4569C14.2147 10.2145 14.2178 9.76081 14.0854 9.06916C14.0614 8.9424 14.051 8.95129 14.0614 9.0914Z" fill="black"/>
<path d="M7.82799 10.6415C7.82278 10.6482 7.78211 10.7972 7.73831 10.9729L7.65698 11.2887L7.67888 11.5111C7.78002 12.5363 8.01464 13.3436 8.29721 13.6505C8.39002 13.7484 8.52661 13.8373 8.67572 13.8929C8.8655 13.9641 9.23879 13.9641 9.5026 13.8929C9.60166 13.8662 9.69342 13.8351 9.70593 13.8262C9.732 13.804 9.70072 13.7928 9.45672 13.7461C9.36496 13.7283 9.16372 13.6883 9.00835 13.6572C8.85403 13.626 8.68928 13.5949 8.6434 13.586L8.55998 13.5727L8.50472 13.4481C8.47448 13.3792 8.43068 13.2769 8.4067 13.2168L8.36499 13.1123L8.94266 13.1101C9.58289 13.1056 9.57559 13.1123 9.09177 12.99C8.9656 12.9589 8.76852 12.9077 8.65382 12.8788C8.53913 12.8499 8.41921 12.8188 8.38689 12.8121L8.32745 12.7965L8.23778 12.4896C8.18877 12.3206 8.1481 12.1694 8.1481 12.156C8.1481 12.1338 8.17 12.1316 8.23986 12.1427C8.28991 12.1493 8.48595 12.1716 8.67468 12.1894C8.86445 12.2094 9.1439 12.2383 9.29718 12.2561C9.67882 12.3006 9.67986 12.3006 9.40458 12.2027C8.64757 11.9336 8.10327 11.7357 8.0991 11.7268C8.09075 11.7068 8.00212 11.1931 8.00629 11.1842C8.00838 11.1797 8.10327 11.1953 8.21692 11.2197C8.33162 11.2442 8.52036 11.2865 8.63818 11.3109C9.23775 11.4355 9.40771 11.471 9.55369 11.5022C9.64232 11.52 9.71636 11.5311 9.71844 11.5266C9.7247 11.5155 9.70802 11.5066 9.40458 11.3665C9.28467 11.3087 9.06883 11.2086 8.92493 11.1419C8.78208 11.0752 8.54747 10.964 8.40357 10.8973C8.13559 10.7727 8.06886 10.7394 7.92183 10.6704C7.87491 10.646 7.83216 10.6348 7.82799 10.6415Z" fill="black"/>
<path d="M11.8445 10.7237C11.7361 10.7771 11.6256 10.8305 11.5995 10.8416C11.5484 10.8661 11.1417 11.0573 10.5776 11.322C10.3795 11.4132 10.2064 11.4954 10.1929 11.5021C10.1793 11.5088 10.171 11.5177 10.1741 11.5244C10.1762 11.531 10.3211 11.5043 10.4952 11.4688C10.6694 11.4309 10.9582 11.3709 11.1355 11.3331C11.3138 11.2953 11.5526 11.2464 11.6662 11.2219C11.7799 11.1974 11.8758 11.1819 11.8789 11.1885C11.8862 11.2019 11.7966 11.7089 11.7841 11.7267C11.7788 11.7334 11.6381 11.7868 11.4712 11.849C10.5568 12.176 10.3034 12.2671 10.293 12.2671C10.2877 12.2671 10.2846 12.2716 10.2877 12.2783C10.2909 12.2849 10.4223 12.276 10.5787 12.2583C10.7361 12.2382 10.9728 12.2138 11.1042 12.2004C11.2366 12.1893 11.4327 12.1671 11.5401 12.1537C11.6485 12.1404 11.7392 12.1337 11.7423 12.1404C11.7486 12.1559 11.5599 12.8009 11.5494 12.8009C11.5453 12.8009 11.4035 12.8365 11.2345 12.8787C11.0656 12.9232 10.8268 12.9833 10.7048 13.0122C10.3336 13.1056 10.3368 13.1078 10.9457 13.11C11.2596 13.11 11.5161 13.1189 11.5161 13.1256C11.5161 13.1345 11.4744 13.2368 11.4233 13.3547L11.3294 13.5704L11.1855 13.5971C11.1063 13.6126 10.9457 13.6438 10.8279 13.6682C10.71 13.6905 10.514 13.7305 10.391 13.755C10.2679 13.7794 10.1657 13.8039 10.1637 13.8106C10.1574 13.8239 10.2012 13.8417 10.343 13.8795C10.9624 14.0485 11.4546 13.9084 11.709 13.4903C11.9259 13.1345 12.099 12.4717 12.1949 11.6333C12.2116 11.4865 12.2251 11.3464 12.2251 11.3175C12.2251 11.2641 12.0677 10.637 12.052 10.6303C12.0468 10.6281 11.954 10.6704 11.8445 10.7237Z" fill="black"/>
<path d="M5.97916 11.3665C5.97082 11.371 5.93224 11.3821 5.89366 11.3888C5.85404 11.3977 5.82275 11.411 5.82275 11.4199C5.82275 11.4288 5.86133 11.4466 5.9093 11.4622C6.10116 11.5222 6.37852 11.6801 6.56621 11.838C6.88633 12.1049 7.06359 12.4073 7.19602 12.9033C7.23147 13.0367 7.30342 13.3147 7.35555 13.5238C7.40873 13.7306 7.47755 13.9863 7.50884 14.0909C7.61415 14.4356 7.76743 14.7047 7.95095 14.8626C8.18452 15.0627 8.5745 15.0449 9.1334 14.8047C9.30962 14.7291 9.77988 14.48 9.76216 14.4734C9.75277 14.4689 9.66206 14.4867 9.55883 14.5112C9.05728 14.6335 8.58388 14.6891 8.33988 14.6513C8.24917 14.6379 8.14177 14.6113 8.1011 14.5912C7.93531 14.5156 7.76222 14.2532 7.65065 13.9085C7.62145 13.8195 7.5495 13.5549 7.49111 13.3236C7.30238 12.5786 7.26484 12.454 7.16787 12.245C6.9833 11.8469 6.71741 11.5578 6.41085 11.4221C6.31596 11.3799 6.02191 11.3421 5.97916 11.3665Z" fill="black"/>
<path d="M13.6223 11.369C13.251 11.4625 12.9278 11.776 12.7026 12.2542C12.6306 12.4076 12.5618 12.6345 12.4492 13.0793C12.2573 13.8465 12.1791 14.0934 12.0686 14.2846C11.931 14.5204 11.8121 14.6071 11.5629 14.6494C11.3377 14.6894 10.7746 14.6271 10.3168 14.5137C10.2219 14.4892 10.1312 14.4692 10.1135 14.4714C10.0384 14.4759 10.5817 14.7339 10.8538 14.8228C11.1646 14.9251 11.2772 14.9451 11.5316 14.9451C11.8183 14.9474 11.8674 14.9296 12.0092 14.7783C12.1155 14.6649 12.1718 14.5782 12.2521 14.3981C12.3366 14.2112 12.3991 14.0066 12.5274 13.5018C12.7151 12.7612 12.7558 12.6233 12.834 12.4543C13.031 12.034 13.3647 11.7204 13.8402 11.5136C13.9246 11.4758 14.007 11.4447 14.0227 11.4447C14.0612 11.4447 14.056 11.4069 14.0164 11.3913C13.9705 11.3757 13.6681 11.3579 13.6223 11.369Z" fill="black"/>
<path d="M5.94276 11.8891C5.98656 12.2094 6.12211 12.8098 6.22638 13.1434C6.38801 13.6616 6.54858 13.8773 6.8541 13.9885C6.95942 14.0263 7.16379 14.0352 7.18777 14.0041C7.20446 13.9818 7.19611 13.9752 7.10018 13.9351C7.02407 13.9018 6.81761 13.7505 6.74566 13.6727C6.56735 13.4814 6.42867 13.1612 6.35777 12.7742C6.31397 12.5318 6.31397 12.5318 6.31397 12.7298C6.31293 12.8365 6.30876 12.9099 6.30354 12.901C6.29833 12.8943 6.217 12.6608 6.1242 12.3828C5.93546 11.8202 5.93234 11.809 5.94276 11.8891Z" fill="black"/>
<path d="M14.0177 11.9159C14.0041 11.9559 13.9228 12.1983 13.8373 12.4563L13.6798 12.9211L13.6746 12.7343C13.6684 12.5341 13.6673 12.5341 13.634 12.7432C13.5933 12.9945 13.4932 13.2925 13.3889 13.4726C13.2815 13.655 13.0667 13.8485 12.8561 13.9463C12.7508 13.9975 12.7716 14.0197 12.9239 14.0219C13.1032 14.0242 13.2899 13.9396 13.4442 13.7862C13.6225 13.6061 13.8143 13.0701 13.9593 12.3429C14.0031 12.1294 14.051 11.8447 14.0448 11.8447C14.0427 11.8447 14.0302 11.8781 14.0177 11.9159Z" fill="black"/>
<defs>
<radialGradient id="paint0_radial_224_1314" cx="0" cy="0" r="1" gradientUnits="userSpaceOnUse" gradientTransform="translate(10 10) rotate(90) scale(8)">
<stop stop-color="#FCD1BA"/>
<stop offset="1" stop-color="#F08951"/>
</radialGradient>
</defs>
</svg>
