<svg width="162" height="50" viewBox="0 0 162 50" fill="none" xmlns="http://www.w3.org/2000/svg">
<g clip-path="url(#clip0_467_3370)" filter="url(#filter0_d_467_3370)">
<path fill-rule="evenodd" clip-rule="evenodd" d="M108 42H118.944L123.646 28.7887L128.535 24.7392L132.386 36.6869C133.577 40.3797 134.803 42 137.477 42H145.856L137.212 18.5552L158 0H144.575L131.956 13.2116C130.486 14.7496 128.999 16.2634 127.508 18.0715H127.381L133.682 0H122.737L108 42Z" fill="#1AB248"/>
<path fill-rule="evenodd" clip-rule="evenodd" d="M107.528 0.00166416C110.96 0.00221654 114.289 0.00275227 117.077 0.00299438L114.818 6.93737C114.108 9.11608 112.306 10.1584 108.334 10.1584C101.438 10.1584 91.2335 10.1572 84.3365 10.156L86.5955 3.22165C87.3052 1.04174 89.107 0 93.079 0C97.1875 0 102.47 0.000850164 107.528 0.00166416ZM87.5091 15.921C94.4051 15.921 104.61 15.9222 111.507 15.924L109.248 22.8581C108.538 25.0374 106.736 26.0791 102.764 26.0791C95.8676 26.0791 85.6633 26.0779 78.7663 26.0761L81.0253 19.1427C81.735 16.963 83.537 15.921 87.5091 15.921ZM105.663 31.844C98.7665 31.8428 88.5622 31.8416 81.6659 31.8416C77.6932 31.8416 75.8918 32.8839 75.1821 35.062L72.9231 41.9973C79.8201 41.9979 90.0244 42 96.921 42C100.893 42 102.695 40.9574 103.404 38.7781L105.663 31.844Z" fill="#1AB248"/>
<path fill-rule="evenodd" clip-rule="evenodd" d="M58.3767 10.116L64.25 10.1184C69.2542 10.1196 68.112 16.1685 65.5794 22.0639C63.3478 27.26 59.3927 31.8454 54.6743 31.8448L44.883 31.8436C40.9776 31.8436 39.177 32.8859 38.4175 35.0639L36 41.9988L43.1798 42L50.1982 41.9434C56.4223 41.8937 61.5178 41.4583 67.4765 36.2753C73.7737 30.8001 81.1159 16.5763 79.858 8.3494C78.8726 1.90253 75.2934 0.00299423 66.6263 0.00239538L50.8324 0L41.6363 26.0492L47.4793 26.0564C50.9568 26.0602 52.702 26.1025 54.5518 21.2848L58.3767 10.116Z" fill="#1AB248"/>
<path fill-rule="evenodd" clip-rule="evenodd" d="M31.376 10.1522L26.9585 10.1534C18.1091 10.1576 10.526 31.8484 20.9894 31.8448L27.7124 31.8436C31.5898 31.8436 34.4682 33.214 33.1937 36.9092L31.4374 41.9988L24.3071 42L18.5073 41.9434C11.0876 41.8716 6.29964 38.3315 4.57566 32.9562C2.71007 27.1394 5.34396 15.0071 12.9885 7.23525C17.4241 2.72654 23.5683 0.00299423 31.446 0.00239538L46 0L43.7249 6.35674C42.255 10.4639 39.2518 10.1576 37.538 10.157L31.376 10.1522Z" fill="#1AB248"/>
</g>
<defs>
<filter id="filter0_d_467_3370" x="0" y="0" width="162" height="50" filterUnits="userSpaceOnUse" color-interpolation-filters="sRGB">
<feFlood flood-opacity="0" result="BackgroundImageFix"/>
<feColorMatrix in="SourceAlpha" type="matrix" values="0 0 0 0 0 0 0 0 0 0 0 0 0 0 0 0 0 0 127 0" result="hardAlpha"/>
<feOffset dy="4"/>
<feGaussianBlur stdDeviation="2"/>
<feComposite in2="hardAlpha" operator="out"/>
<feColorMatrix type="matrix" values="0 0 0 0 0 0 0 0 0 0 0 0 0 0 0 0 0 0 0.25 0"/>
<feBlend mode="normal" in2="BackgroundImageFix" result="effect1_dropShadow_467_3370"/>
<feBlend mode="normal" in="SourceGraphic" in2="effect1_dropShadow_467_3370" result="shape"/>
</filter>
<clipPath id="clip0_467_3370">
<rect width="154" height="42" fill="white" transform="translate(4)"/>
</clipPath>
</defs>
</svg>
