<svg width="74" height="20" viewBox="0 0 74 20" fill="none" xmlns="http://www.w3.org/2000/svg">
<path d="M10 13.8263L6.55062 13.3L5 10L3.44938 13.3L0 13.8263L2.49531 16.3813L1.90469 20L5 18.2906L8.09533 20L7.50438 16.3812L10 13.8263ZM5 17.5656L2.67843 18.8672L3.12155 16.2409L1.12281 14.2006L3.82624 13.8491L5 11.3475L6.16314 13.8491L8.85752 14.2313L6.87843 16.2506L7.29219 18.8769L5 17.5656Z" fill="#F08951"/>
<path d="M26 10.7394L20.8259 9.95L18.5 5L16.1741 9.95L11 10.7394L14.743 14.5719L13.857 20L18.5 17.436L23.143 20L22.2566 14.5719L26 10.7394ZM18.5 16.3485L15.0176 18.3008L15.6823 14.3614L12.6842 11.3009L16.7394 10.7736L18.5 7.02125L20.2447 10.7736L24.2863 11.3469L21.3176 14.3759L21.9383 18.3153L18.5 16.3485Z" fill="#F08951"/>
<path d="M47 7.65252L40.1012 6.6L37 0L33.8988 6.6L27 7.65252L31.9906 12.7625L30.8094 20L37 16.5813L43.1907 20L42.0088 12.7625L47 7.65252ZM37 15.1313L32.3569 17.7344L33.2431 12.4819L29.2456 8.40124L34.6525 7.6981L37 2.695L39.3263 7.69814L44.715 8.46252L40.7569 12.5012L41.5844 17.7538L37 15.1313Z" fill="#F08951"/>
<path d="M63 10.7394L57.8259 9.95L55.5 5L53.1741 9.95L48 10.7394L51.743 14.5719L50.857 20L55.5 17.436L60.143 20L59.2566 14.5719L63 10.7394ZM55.5 16.3485L52.0176 18.3008L52.6823 14.3614L49.6842 11.3009L53.7394 10.7736L55.5 7.02125L57.2447 10.7736L61.2863 11.3469L58.3176 14.3759L58.9383 18.3153L55.5 16.3485Z" fill="#F08951"/>
<path d="M74 13.8263L70.5506 13.3L69 10L67.4494 13.3L64 13.8263L66.4953 16.3813L65.9047 20L69 18.2906L72.0953 20L71.5044 16.3812L74 13.8263ZM69 17.5656L66.6784 18.8672L67.1216 16.2409L65.1228 14.2006L67.8262 13.8491L69 11.3475L70.1631 13.8491L72.8575 14.2313L70.8784 16.2506L71.2922 18.8769L69 17.5656Z" fill="#F08951"/>
</svg>
