<svg width="20" height="20" viewBox="0 0 20 20" fill="none" xmlns="http://www.w3.org/2000/svg">
<path d="M18.3009 14.9866L15.5085 13.0352C15.1433 12.781 14.7165 12.6465 14.2739 12.6465C13.5699 12.6465 12.9093 12.9917 12.5069 13.5692L11.8587 14.4983C10.7722 13.7696 9.55977 12.7521 8.40454 11.5968C7.2491 10.4413 6.23173 9.22891 5.50353 8.1424L6.43188 7.49433C7.40653 6.81553 7.64625 5.46888 6.96582 4.49183L5.01504 1.69959C4.60696 1.11592 3.94863 0.767578 3.2541 0.767578C3.01355 0.767578 2.77741 0.809885 2.55242 0.893025C2.29734 0.987531 2.05973 1.10308 1.82654 1.24937L1.44097 1.52089C1.34458 1.59603 1.25492 1.67791 1.16905 1.76378C0.698668 2.23421 0.364664 2.82945 0.17651 3.5333C-0.627247 6.54675 1.36394 11.1028 5.13122 14.8704C8.29489 18.0344 12.0956 20.0001 15.0501 20.0003H15.0507C15.5563 20.0003 16.0328 19.9413 16.4676 19.8256C17.1714 19.6374 17.7665 19.3034 18.2363 18.8334C18.3224 18.7477 18.4045 18.6578 18.492 18.5444L18.7639 18.1562C18.8972 17.9428 19.0127 17.705 19.1074 17.4494C19.4361 16.5612 19.1047 15.5484 18.3009 14.9866Z" fill="#F08951"/>
<path d="M16.8642 3.13628C15.0065 1.27815 12.5403 0.16471 9.92003 0.000955911C9.68389 -0.0148302 9.47784 0.166815 9.4629 0.404237C9.44796 0.64187 9.62853 0.846457 9.86615 0.861401C12.2766 1.01211 14.5454 2.03652 16.2547 3.74583C17.9637 5.45493 18.9878 7.72371 19.1387 10.1343C19.153 10.3627 19.3426 10.5385 19.5685 10.5385C19.5775 10.5385 19.5866 10.5383 19.5958 10.5376C19.8334 10.5227 20.014 10.3181 19.9991 10.0805C19.8351 7.46018 18.7218 4.99398 16.8642 3.13628Z" fill="#F08951"/>
<path d="M9.70453 3.44317C11.4861 3.55472 13.1628 4.31182 14.426 5.57513C15.689 6.83843 16.4461 8.51512 16.5576 10.2964C16.5719 10.5248 16.7615 10.7005 16.9874 10.7005C16.9964 10.7005 17.0055 10.7003 17.0147 10.6997C17.2523 10.6848 17.4329 10.4802 17.418 10.2425C17.2934 8.25139 16.4473 6.37727 15.0355 4.96558C13.6238 3.55367 11.7496 2.70733 9.7584 2.58272C9.51995 2.56946 9.31622 2.74858 9.30128 2.986C9.28634 3.22364 9.46691 3.42822 9.70453 3.44317Z" fill="#F08951"/>
<path d="M9.5429 6.02454C10.6952 6.09673 11.7799 6.58652 12.5973 7.40382C13.4146 8.22132 13.9043 9.30593 13.9767 10.4581C13.991 10.6867 14.1809 10.8622 14.4065 10.8622C14.4155 10.8622 14.4248 10.862 14.4338 10.8614C14.6715 10.8464 14.852 10.6416 14.8371 10.4042C14.7516 9.0422 14.1727 7.76037 13.2068 6.79426C12.2408 5.82837 10.9587 5.24933 9.59678 5.16409C9.35601 5.14788 9.1546 5.32995 9.13966 5.56737C9.12472 5.805 9.30529 6.00959 9.5429 6.02454Z" fill="#F08951"/>
</svg>
