<svg width="100" height="18" viewBox="0 0 100 18" fill="none" xmlns="http://www.w3.org/2000/svg">
<path d="M4.00004 1.54862V6.60584H2.75004C2.0207 6.60584 1.32122 6.33944 0.8055 5.86523C0.289776 5.39102 4.3869e-05 4.74786 4.3869e-05 4.07723C4.3869e-05 3.4066 0.289776 2.76344 0.8055 2.28923C1.32122 1.81502 2.0207 1.54862 2.75004 1.54862L4.00004 1.54862ZM15.88 5.2266C15.88 7.06559 13 7.98509 11 7.98509C10 7.98509 9.00004 7.52534 7.50004 7.06559L6.00004 6.60584V1.54862C7.00004 1.54862 8.50004 1.08887 11 1.08887C13.5 1.08887 15.88 2.92602 15.88 5.2266ZM7.90204 16.3102L6.67104 16.1107C5.9527 15.9942 5.3141 15.6202 4.8957 15.0708C4.47731 14.5214 4.3134 13.8417 4.44004 13.1812C4.56668 12.5206 4.9735 11.9334 5.57099 11.5487C6.16848 11.164 6.9077 11.0133 7.62604 11.1298L8.85604 11.3302L7.90204 16.3102ZM20.295 14.5852C19.861 16.8509 17.171 18.2798 14.709 17.8807C12.246 17.4816 10.856 16.7893 9.87104 16.6302L10.826 11.6493L12.39 11.436C13.954 11.2226 15.026 10.9302 16.01 11.0893C17.98 11.4084 20.642 12.7738 20.295 14.5852Z" fill="#F08951"/>
<path d="M42.9999 0.628693V5.68592H41.7499C41.0206 5.68592 40.3211 5.41951 39.8054 4.94531C39.2897 4.4711 38.9999 3.82794 38.9999 3.15731C38.9999 2.48668 39.2897 1.84351 39.8054 1.36931C40.3211 0.8951 41.0206 0.628693 41.7499 0.628693L42.9999 0.628693ZM54.8799 4.30668C54.8799 6.14567 51.9999 7.06516 49.9999 7.06516C48.9999 7.06516 47.9999 6.60542 46.4999 6.14567L44.9999 5.68592V0.628693C45.9999 0.628693 47.4999 0.168945 49.9999 0.168945C52.4999 0.168945 54.8799 2.0061 54.8799 4.30668ZM46.9019 15.3903L45.6709 15.1907C44.9526 15.0743 44.314 14.7002 43.8956 14.1509C43.4772 13.6015 43.3133 12.9217 43.4399 12.2612C43.5666 11.6007 43.9734 11.0135 44.5709 10.6288C45.1684 10.2441 45.9076 10.0934 46.6259 10.2098L47.8559 10.4103L46.9019 15.3903ZM59.2949 13.6653C58.8609 15.9309 56.1709 17.3598 53.7089 16.9608C51.2459 16.5617 49.8559 15.8693 48.8709 15.7103L49.8259 10.7294L51.3899 10.516C52.9539 10.3027 54.0259 10.0103 55.0099 10.1694C56.9799 10.4884 59.6419 11.8539 59.2949 13.6653Z" fill="#F08951"/>
<path d="M82.9999 0.628693V5.68592H81.7499C81.0206 5.68592 80.3211 5.41951 79.8054 4.94531C79.2897 4.4711 78.9999 3.82794 78.9999 3.15731C78.9999 2.48668 79.2897 1.84351 79.8054 1.36931C80.3211 0.8951 81.0206 0.628693 81.7499 0.628693L82.9999 0.628693ZM94.8799 4.30668C94.8799 6.14567 91.9999 7.06516 89.9999 7.06516C88.9999 7.06516 87.9999 6.60542 86.4999 6.14567L84.9999 5.68592V0.628693C85.9999 0.628693 87.4999 0.168945 89.9999 0.168945C92.4999 0.168945 94.8799 2.0061 94.8799 4.30668ZM86.9019 15.3903L85.6709 15.1907C84.9526 15.0743 84.314 14.7002 83.8956 14.1509C83.4772 13.6015 83.3133 12.9217 83.4399 12.2612C83.5666 11.6007 83.9734 11.0135 84.5709 10.6288C85.1684 10.2441 85.9076 10.0934 86.6259 10.2098L87.8559 10.4103L86.9019 15.3903ZM99.2949 13.6653C98.8609 15.9309 96.1709 17.3598 93.7089 16.9608C91.2459 16.5617 89.8559 15.8693 88.8709 15.7103L89.8259 10.7294L91.3899 10.516C92.9539 10.3027 94.0259 10.0103 95.0099 10.1694C96.9799 10.4884 99.6419 11.8539 99.2949 13.6653Z" fill="#F08951"/>
</svg>
