<svg width="152" height="152" viewBox="0 0 152 152" fill="none" xmlns="http://www.w3.org/2000/svg">
<rect width="152" height="152" rx="76" fill="#F08951"/>
<path d="M63.007 26.1941C58.2105 26.75 54.3003 28.0622 51.9333 29.8636C47.7624 33.066 43.7062 40.9165 40.6093 51.7471C40.2027 53.1482 39.8169 54.2824 39.7334 54.2602C39.6605 54.2602 39.2225 54.0155 38.7637 53.7709C38.3049 53.504 37.4916 53.1704 36.9494 53.0148L35.9588 52.7701L34.8327 47.8108L33.7169 42.8514H33.2477C32.5699 42.8514 27.6379 42.4288 26.7516 42.2954C26.0738 42.2064 25.9904 42.2287 26.0008 42.5845C26.0008 42.7847 26.324 44.7195 26.6994 46.8545L27.398 50.7464L30.4741 50.8131L33.5397 50.8576L33.9359 51.6804C34.3843 52.6145 34.4364 53.0815 34.0923 53.0815C33.6544 53.0815 32.4135 53.8821 31.7149 54.616C30.8077 55.5723 29.911 57.1513 29.4314 58.6858C29.0247 59.9979 28.472 63.3561 28.2948 65.6468C27.2416 79.2128 28.983 102.297 31.7879 111.949C33.279 117.109 36.1465 120.333 39.9524 121.134C40.5572 121.267 41.235 121.423 41.4539 121.468C41.6729 121.534 41.8397 121.49 41.8397 121.356C41.8397 121.245 41.7459 121.134 41.6312 121.134C41.235 121.134 39.3789 119.733 38.2006 118.554C36.2716 116.597 34.3634 113.595 33.4667 111.082C30.3072 102.186 28.4095 71.5624 30.4324 61.955C30.7765 60.3538 31.6524 58.5079 32.497 57.6628C33.4354 56.7065 34.1757 56.3952 35.4791 56.3729C36.7617 56.3729 37.6167 56.6176 38.7116 57.3292C39.3893 57.7518 40.015 57.863 52.4755 59.8645C54.3941 60.1759 56.8341 60.5762 57.8977 60.7541C58.9612 60.932 61.4221 61.3323 63.3719 61.6437C65.3218 61.955 67.8035 62.3553 68.8775 62.5555C69.962 62.7556 70.8691 62.8446 70.9004 62.8001C70.963 62.6444 70.6814 62.5555 66.8651 61.5325C56.4378 58.7081 41.8085 54.6382 41.7668 54.5493C41.6938 54.3936 43.1849 49.5899 44.0086 47.2992C44.8324 45.0308 46.8448 40.6052 47.7833 38.9595C50.5882 34.1113 53.2263 31.9318 57.9081 30.6419C61.6619 29.5967 62.079 29.5744 82.9751 29.6412C90.4097 29.6634 94.5389 30.553 97.8235 32.8436C101.598 35.4679 105.123 41.7839 108.021 51.0799C108.845 53.7264 109.033 54.4159 108.96 54.5715C108.928 54.616 108.564 54.7717 108.136 54.8829C107.364 55.1053 105.529 55.6168 102.63 56.3952C101.744 56.6398 100.274 57.0401 99.3771 57.307C98.47 57.5516 96.9997 57.9519 96.1134 58.1966C95.2271 58.4412 93.7569 58.8415 92.8601 59.0861C91.953 59.353 90.295 59.7978 89.1793 60.1091C88.0636 60.4205 86.4161 60.8653 85.5298 61.1099C84.6435 61.3545 83.1628 61.7549 82.2452 61.9773C80.2015 62.511 79.7635 62.6667 79.8261 62.7779C79.8678 62.8668 85.5506 61.9773 92.881 60.7541C95.9153 60.2426 98.7098 59.7978 101.118 59.4197C102.328 59.2418 104.174 58.9305 105.237 58.7525C106.301 58.5746 108.126 58.2633 109.304 58.0854C110.837 57.8185 111.671 57.5739 112.286 57.1958C113.725 56.3062 115.936 56.106 117.176 56.7732C118.261 57.3292 119.564 59.1751 120.054 60.8208C120.419 62.044 120.815 64.7349 120.982 67.0701C121.389 73.008 121.128 83.6162 120.346 92.5564C119.596 101.096 118.282 108.791 117.072 111.727C116.092 114.084 113.965 117.309 112.328 118.866C111.483 119.666 109.909 120.823 109.387 121.023C109.168 121.112 108.991 121.267 108.991 121.356C108.991 121.468 109.168 121.49 109.387 121.445C109.596 121.401 110.263 121.245 110.868 121.112C114.653 120.267 117.437 117.175 118.959 112.105C120.482 107.034 121.858 96.6262 122.515 85.3286C122.786 80.7028 122.786 69.5609 122.515 66.1583C122.275 63.1782 121.817 60.2203 121.358 58.7303C120.722 56.7065 119.22 54.4159 118.063 53.7264C117.802 53.5708 117.552 53.3706 117.5 53.2816C117.458 53.1927 117.635 52.6145 117.906 51.9918L118.407 50.8576H121.462C123.547 50.8576 124.538 50.7908 124.59 50.6129C124.757 50.0125 126.06 42.3843 125.998 42.3176C125.967 42.2731 124.507 42.3843 122.755 42.54C121.003 42.6957 119.283 42.8291 118.928 42.8514H118.292L117.239 47.4549C116.655 50.0125 116.144 52.2364 116.102 52.4143C116.029 52.6589 115.717 52.7701 114.768 52.8813C113.621 53.0148 111.921 53.6375 111.243 54.1935C111.087 54.3047 110.941 54.4159 110.93 54.4159C110.91 54.4159 110.649 53.5263 110.357 52.4365C108.741 46.4764 106.27 40.1826 104.038 36.3352C100.576 30.3973 97.6358 28.1511 91.5776 26.839C88.1262 26.0829 84.9042 25.8827 80.3162 26.0606C75.4675 26.283 76.1349 26.283 69.6804 26.1051C66.9589 26.0384 63.9559 26.0829 63.007 26.1941Z" fill="black"/>
<path d="M33.9775 66.3825C33.8941 66.7161 33.6543 68.0283 33.4457 69.3181C33.1016 71.3642 33.0495 71.9646 33.0078 74.2108C32.9661 76.4348 32.9869 76.924 33.1746 78.0138C33.5709 80.2377 34.551 81.7722 36.7929 83.6181C39.1807 85.5974 43.5914 88.1772 48.1273 90.2454C49.6392 90.9348 49.9729 91.0016 49.9729 90.7125C49.9729 90.2454 48.7008 86.2868 47.9917 84.5521C45.6977 78.9256 42.507 74.6334 38.3882 71.6533C37.9712 71.3419 37.6166 71.1418 37.5958 71.164C37.5853 71.2085 38.3674 73.3212 39.3371 75.8343C40.3173 78.3696 41.1097 80.549 41.1097 80.6602C41.1097 81.2829 39.3788 80.3711 38.2214 79.1257C37.2308 78.0805 35.844 75.901 35.3226 74.5889C34.4572 72.4317 34.0714 70.052 34.1444 67.3833C34.1756 66.4937 34.1861 65.7598 34.1652 65.7598C34.1444 65.7598 34.0609 66.0267 33.9775 66.3825Z" fill="black"/>
<path d="M116.614 66.9149C116.802 69.4057 116.301 72.5859 115.383 74.6764C114.685 76.2999 113.392 78.3014 112.391 79.3022C111.327 80.3919 109.617 81.2593 109.617 80.7033C109.617 80.6143 110.42 78.4571 111.4 75.9218C112.38 73.3643 113.162 71.2516 113.142 71.2071C113.016 70.9402 110.305 73.2531 108.522 75.1435C106.082 77.7232 103.569 82.1044 102.047 86.4411C101.38 88.3314 100.712 90.7333 100.806 90.9334C100.838 90.9779 101.129 90.9112 101.453 90.7777C106.854 88.3537 110.764 86.152 113.621 83.9058C114.925 82.8828 116.207 81.5262 116.76 80.5699C118.147 78.1458 118.178 73.6089 116.854 66.6925C116.614 65.4248 116.51 65.5138 116.614 66.9149Z" fill="black"/>
<path d="M54.2799 82.4142C54.2278 82.4809 53.8211 83.9709 53.3831 85.7278L52.5698 88.8858L52.7888 91.1098C53.8002 101.362 56.1464 109.435 58.9721 112.504C59.9002 113.483 61.2661 114.372 62.7572 114.928C64.655 115.64 68.3879 115.64 71.026 114.928C72.0166 114.661 72.9342 114.35 73.0593 114.261C73.32 114.039 73.0072 113.927 70.5672 113.46C69.6496 113.282 67.6372 112.882 66.0835 112.571C64.5403 112.259 62.8928 111.948 62.434 111.859L61.5998 111.726L61.0472 110.48C60.7448 109.791 60.3068 108.768 60.067 108.167L59.6499 107.122L65.4266 107.1C71.8289 107.055 71.7559 107.122 66.9177 105.899C65.656 105.588 63.6852 105.076 62.5382 104.787C61.3913 104.498 60.1921 104.187 59.8689 104.12L59.2745 103.964L58.3778 100.895C57.8877 99.2049 57.481 97.6926 57.481 97.5592C57.481 97.3368 57.7 97.3146 58.3986 97.4258C58.8991 97.4925 60.8595 97.7149 62.7468 97.8928C64.6445 98.0929 67.439 98.3821 68.9718 98.56C72.7882 99.0048 72.7986 99.0048 70.0458 98.0262C62.4757 95.3353 57.0327 93.356 56.991 93.267C56.9075 93.0668 56.0212 87.9295 56.0629 87.8406C56.0838 87.7961 57.0327 87.9518 58.1692 88.1964C59.3162 88.441 61.2036 88.8636 62.3818 89.1082C68.3775 90.3536 70.0771 90.7095 71.5369 91.0208C72.4232 91.1987 73.1636 91.3099 73.1844 91.2654C73.247 91.1542 73.0802 91.0653 70.0458 89.6642C68.8467 89.086 66.6883 88.0852 65.2493 87.418C63.8208 86.7508 61.4747 85.6389 60.0357 84.9717C57.3559 83.7263 56.6886 83.3927 55.2183 82.7033C54.7491 82.4586 54.3216 82.3474 54.2799 82.4142Z" fill="black"/>
<path d="M94.4453 83.2373C93.3609 83.771 92.2556 84.3048 91.9949 84.416C91.484 84.6606 87.4173 86.5732 81.7762 89.2197C79.795 90.1315 78.0641 90.9543 77.9286 91.0211C77.793 91.0878 77.7096 91.1767 77.7409 91.2434C77.7617 91.3102 79.2111 91.0433 80.9525 90.6875C82.6938 90.3094 85.5822 89.7089 87.3548 89.3309C89.1378 88.9528 91.5257 88.4635 92.6622 88.2189C93.7988 87.9743 94.7581 87.8186 94.7894 87.8853C94.8624 88.0187 93.9656 93.0893 93.8405 93.2672C93.7884 93.334 92.3807 93.8677 90.7123 94.4904C81.5677 97.7596 79.0339 98.6714 78.9296 98.6714C78.8775 98.6714 78.8462 98.7159 78.8775 98.7826C78.9087 98.8493 80.2226 98.7604 81.7866 98.5824C83.3612 98.3823 85.7281 98.1377 87.042 98.0042C88.3662 97.893 90.3265 97.6706 91.4005 97.5372C92.485 97.4038 93.3921 97.337 93.4234 97.4038C93.486 97.5594 91.5987 104.009 91.4944 104.009C91.4527 104.009 90.0346 104.365 88.3454 104.787C86.6562 105.232 84.2683 105.832 83.0483 106.122C79.3362 107.056 79.3675 107.078 85.457 107.1C88.5956 107.1 91.1607 107.189 91.1607 107.256C91.1607 107.345 90.7436 108.368 90.2327 109.546L89.2942 111.704L87.8553 111.971C87.0628 112.126 85.457 112.438 84.2788 112.682C83.1005 112.905 81.1402 113.305 79.9097 113.55C78.6793 113.794 77.6575 114.039 77.6366 114.106C77.574 114.239 78.012 114.417 79.4301 114.795C85.6239 116.485 90.5455 115.084 93.0898 110.903C95.2586 107.345 96.9895 100.717 97.9488 92.3332C98.1157 90.8654 98.2512 89.4643 98.2512 89.1752C98.2512 88.6414 96.6767 82.3699 96.5203 82.3032C96.4682 82.281 95.5401 82.7035 94.4453 83.2373Z" fill="black"/>
<path d="M35.7928 89.665C35.7094 89.7094 35.3236 89.8206 34.9378 89.8874C34.5416 89.9763 34.2288 90.1097 34.2288 90.1987C34.2288 90.2877 34.6146 90.4656 35.0942 90.6213C37.0128 91.2217 39.7865 92.8007 41.6634 94.3797C44.8645 97.0484 46.6371 100.073 47.9614 105.032C48.3159 106.367 49.0354 109.147 49.5568 111.237C50.0886 113.305 50.7768 115.863 51.0896 116.908C52.1427 120.355 53.6755 123.046 55.5107 124.625C57.8464 126.627 61.7462 126.449 67.3352 124.047C69.0974 123.291 73.8001 120.8 73.6228 120.733C73.5289 120.689 72.6218 120.867 71.5895 121.111C66.574 122.335 61.84 122.891 59.4001 122.513C58.4929 122.379 57.4189 122.112 57.0122 121.912C55.3543 121.156 53.6234 118.532 52.5077 115.085C52.2157 114.195 51.4962 111.549 50.9123 109.236C49.025 101.785 48.6496 100.54 47.6799 98.4495C45.8343 94.4687 43.1753 91.5775 40.1097 90.2209C39.1608 89.7984 36.2204 89.4203 35.7928 89.665Z" fill="black"/>
<path d="M112.224 89.6886C108.512 90.6226 105.279 93.7584 103.027 98.5399C102.307 100.074 101.619 102.343 100.493 106.791C98.5745 114.463 97.7925 116.932 96.6872 118.844C95.3108 121.202 94.1221 122.069 91.63 122.492C89.3777 122.892 83.747 122.269 79.1695 121.135C78.2206 120.89 77.3134 120.69 77.1362 120.713C76.3854 120.757 81.818 123.337 84.5395 124.226C87.6468 125.249 88.773 125.45 91.3172 125.45C94.1847 125.472 94.6748 125.294 96.0929 123.782C97.1564 122.647 97.7195 121.78 98.5224 119.979C99.367 118.111 99.9926 116.065 101.275 111.016C103.152 103.61 103.559 102.232 104.341 100.541C106.312 96.3382 109.648 93.2024 114.403 91.1341C115.248 90.7561 116.071 90.4447 116.228 90.4447C116.614 90.4447 116.561 90.0667 116.165 89.911C115.706 89.7553 112.683 89.5774 112.224 89.6886Z" fill="black"/>
<path d="M35.4276 94.8895C35.8656 98.092 37.2211 104.097 38.2638 107.433C39.8801 112.614 41.4858 114.772 44.541 115.883C45.5942 116.262 47.6379 116.35 47.8777 116.039C48.0446 115.817 47.9611 115.75 47.0018 115.35C46.2407 115.016 44.1761 113.504 43.4566 112.725C41.6735 110.813 40.2867 107.61 39.5777 103.741C39.1397 101.317 39.1397 101.317 39.1397 103.296C39.1293 104.363 39.0876 105.097 39.0354 105.008C38.9833 104.942 38.17 102.607 37.242 99.8266C35.3546 94.2001 35.3234 94.0889 35.4276 94.8895Z" fill="black"/>
<path d="M116.176 95.1576C116.04 95.5579 115.227 97.982 114.372 100.562L112.797 105.21L112.745 103.342C112.682 101.34 112.672 101.34 112.338 103.431C111.932 105.944 110.931 108.924 109.888 110.725C108.814 112.549 106.666 114.484 104.56 115.462C103.506 115.974 103.715 116.196 105.237 116.218C107.031 116.241 108.897 115.395 110.441 113.861C112.224 112.06 114.142 106.7 115.592 99.4276C116.03 97.2926 116.509 94.4459 116.447 94.4459C116.426 94.4459 116.301 94.7795 116.176 95.1576Z" fill="black"/>
</svg>
